<svg version="1.0" xmlns="http://www.w3.org/2000/svg" width="500" height="500" viewBox="0 0 375 375"><path d="M127.441 71.265c-10.254 3.003-17.139 9.521-20.508 19.629-3.955 11.572 1.318 26.66 11.426 32.959 1.465.879 2.417 1.685 2.271 1.831s-2.197.659-4.541 1.099c-9.082 1.685-18.604 8.643-22.559 16.479-1.025 1.978-6.812 18.75-12.964 37.28-10.839 32.593-11.206 33.911-11.279 39.917 0 7.91 1.904 13.037 6.885 18.53 4.175 4.614 7.983 6.738 23.657 13.037l11.572 4.614-.439 13.257c-.513 12.378-.439 13.403 1.099 17.358 2.783 7.471 10.547 13.55 18.384 14.355 8.13.806 17.212-3.516 21.313-10.107 1.172-1.831 5.566-13.184 9.814-25.269 9.082-25.488 9.448-27.905 5.786-34.644-1.172-2.197-2.93-4.541-3.955-5.273-1.099-.659-7.617-4.102-14.575-7.617s-12.524-6.592-12.378-6.885 2.71-5.859 5.64-12.451c2.93-6.519 5.64-11.865 5.933-11.865.366 0 5.347 2.637 11.06 5.786 12.231 6.738 15.161 7.764 22.046 7.104 3.735-.366 4.907-.22 4.907.513 0 1.685 3.003 6.665 5.713 9.521 3.882 4.028 7.471 5.933 16.772 8.716 4.541 1.318 8.276 2.637 8.276 3.003 0 .439-8.569 18.018-9.082 18.604-.146.146-3.735-.22-8.057-.806-6.445-.879-8.569-.879-11.426-.146-4.248 1.099-8.203 3.955-10.62 7.617-2.563 3.955-9.448 32.959-8.936 37.573 1.611 13.623 14.868 22.412 27.979 18.677 6.372-1.904 11.06-6.665 15.088-15.454l3.223-6.958h13.55v9.155c0 9.814.586 12.158 3.442 13.477 1.099.513 8.276.806 20.215.806h18.457l4.468-2.124c13.33-6.299 16.187-23.95 4.98-30.908-2.051-1.245-4.175-1.758-8.423-1.978l-5.64-.293 9.082-26.807c7.397-21.753 9.082-27.539 9.082-30.835-.073-7.617-3.735-12.817-11.865-16.772l-4.614-2.271 4.761.439c9.082.732 16.992-2.124 23.291-8.35 9.448-9.375 11.426-22.925 5.054-34.863-2.783-5.273-7.397-9.521-13.696-12.524-4.248-1.978-5.493-2.271-11.353-2.271-7.69 0-12.378 1.465-17.725 5.493-11.572 8.716-15.088 23.437-8.643 36.328 1.685 3.516 3.882 6.445 6.445 8.789 2.051 1.904 3.296 3.296 2.71 3.076-.586-.293-10.474-4.687-21.973-9.814l-20.874-9.375h-6.445l-6.372-.073-.732-2.271c-1.245-3.735-4.98-8.862-8.13-11.206-1.611-1.172-15.308-7.69-30.469-14.429l-27.466-12.305 4.614-1.172c9.595-2.417 16.04-7.471 20.068-15.601 9.302-18.97-3.442-40.869-24.39-41.968-3.369-.146-6.958.073-8.936.659m13.916 12.305c6.079 2.71 9.814 7.764 10.767 14.209.952 7.031-3.369 14.429-10.327 17.651-16.553 7.69-32.52-13.477-20.361-26.953 5.347-5.933 13.33-7.91 19.922-4.907m-15.381 54.932c4.321.952 57.495 24.536 60.645 26.807 2.71 2.051 5.273 6.592 5.273 9.448 0 1.099-.659 2.71-1.392 3.516-.806.879-2.271 3.223-3.296 5.273-1.318 2.563-2.563 4.028-4.102 4.687-4.395 1.831-7.91.659-22.632-7.617-7.69-4.248-14.648-7.764-15.601-7.764s-2.417.586-3.296 1.318c-2.051 1.611-18.75 38.599-18.677 41.382 0 1.172.439 2.563.952 3.223.513.586 8.13 4.687 16.919 9.082 12.964 6.445 16.187 8.35 16.772 9.961.879 2.271 1.392.293-7.544 25.854-5.273 15.088-7.837 21.46-9.229 22.925-3.735 3.882-10.254 4.395-14.429 1.099-3.809-3.003-4.175-5.054-3.589-21.68.439-14.209.366-15.234-.879-16.772-.879-.952-7.69-4.175-17.139-7.983-8.643-3.442-16.626-6.958-17.725-7.764-2.93-2.051-5.713-7.178-6.226-11.353-.366-3.296.659-6.885 11.133-38.379 6.372-19.116 12.378-35.962 13.403-37.427 2.197-3.369 7.471-7.031 11.06-7.617 1.465-.22 3.003-.513 3.369-.659 1.318-.439 2.856-.366 6.226.439m156.006 9.521c6.079 2.71 9.814 7.764 10.767 14.209.952 7.031-3.369 14.429-10.327 17.651-16.553 7.69-32.52-13.477-20.361-26.953 5.347-5.933 13.33-7.91 19.922-4.907m-42.407 45.19c35.01 15.747 32.886 14.502 32.886 18.677 0 .879-4.614 15.454-10.254 32.373-6.519 19.482-10.107 31.348-9.888 32.446.22.879 1.025 2.271 1.831 3.076 1.318 1.318 2.49 1.465 10.474 1.465q9.009 0 9.888.879c2.271 2.271-.073 7.837-3.955 9.741-1.831.879-5.347 1.099-16.333 1.099h-13.986v-9.155c0-10.034-.806-13.037-3.809-13.843-.952-.22-7.544-.439-14.722-.439-15.454 0-14.282-.659-19.043 10.327-1.685 3.809-3.662 7.91-4.395 9.009-1.538 2.271-5.273 4.102-8.35 4.102-4.248 0-9.741-5.273-9.741-9.375 0-3.735 6.812-29.663 8.13-30.981 1.758-1.758 5.273-1.758 15.747-.22 7.471 1.099 7.91 1.099 9.741-.22 1.245-.879 4.468-6.592 9.448-16.626 4.102-8.423 7.69-16.04 7.91-16.919.513-2.051-2.637-5.859-5.347-6.519-1.172-.293-6.812-2.051-12.598-3.882-11.865-3.662-14.648-5.64-16.113-11.06-.806-2.856-.732-3.223 1.611-6.519 1.392-1.904 2.856-4.541 3.369-5.786 1.172-3.003 3.296-4.028 7.764-3.662 2.783.22 9.668 3.003 29.736 12.012"/></svg>