<svg width="1000.722" height="1000" viewBox="0 0 1000.722 1000" fill="none" xmlns="http://www.w3.org/2000/svg"><path d="M500.103 1000C223.903 1000 0 776.126 0 500.04 0 223.875 223.903 0 500.103 0c276.204 0 500.1 223.875 500.1 500.04-.08 276.086-223.983 499.96-500.1 499.96" fill="#010101"/><path d="M401.266 282.802c-9.276.4-23.509 3.279-32.545 5.117-3.759.72-6.717-7.595-2.719-10.874 1.839-1.439 37.344-3.758 42.942-3.758 4.798-6.477 5.278-6.956 9.755-13.672 2.479-3.758 4.639-9.195 9.916-9.035 3.518 0 6.716 2.959 6.716 6.477 0 4.157-8.716 10.794-11.595 16.071 9.676.24 17.113.24 26.468.719 10.076.48 6.478 8.076 2.719 7.916-12.954-.24-23.989-.24-37.424.72-10.556 14.312-45.98 57.727-53.496 71.24-1.12 2.238-1.439 5.597-5.038 5.756-8.076.24-8.796-4.557-4.877-10.314 10.235-15.431 42.701-56.449 49.178-66.363" fill="#fff"/><path d="M397.188 338.611c2.558-4.317 6.637-9.035 11.115-14.072l23.11-30.143c12.475-16.871 29.827-44.455 36.704-45.015 4.638-.4 9.276 5.517 6.716 10.074-4.398 7.436-17.032 18.869-28.627 31.823-2.719 2.958-4.639 5.277-8.076 9.675 5.758-2.719 15.513-7.676 20.311-7.676 4.638 0 9.196 4.638 9.196 9.275 0 8.315-10.556 17.11-10.556 25.346 0 2.319 1.119 3.518 3.279 3.518 10.556 0 34.385-18.47 35.025-18.47 1.68 0 2.559 2.239 2.24 3.279-2.719 8.076-28.548 25.905-35.985 25.905-6.957 0-14.794-8.235-14.794-15.191 0-8.955 7.117-15.192 9.516-23.108h-.4c-7.437 0-30.467 18.39-40.862 30.383-2.959 4.797-5.597 9.435-7.677 13.432-1.679 3.198-4.318 4.877-6.637 4.877-3.038 0-5.597-2.558-5.997-7.916-.16-3.038.56-4.237 2.399-5.996" fill="#fff"/><path d="M563.196 309.507c.719 0 1.119.48 1.119 1.12.16 2.079-2.558 7.675-4.158 9.035-13.434 11.034-35.504 26.785-53.097 27.905-9.196.48-20.232-6.397-20.791-16.152-.88-12.872 26.229-41.976 38.784-42.856 7.597-.48 11.035 6.237 11.515 12.873.4 6.236-13.115 19.429-19.112 19.828-4.638.24-8.797-1.918-12.874-3.918-1.919.72-8.797 12.713-8.716 14.792.24 3.758 7.357 5.277 10.316 5.117 21.11-1.279 54.136-27.504 57.015-27.745m-36.866-9.434c-2.558.24-14.234 7.356-14.074 9.755.159 1.359 2.479 1.838 3.438 1.679 3.439-.24 11.836-7.596 11.755-11.114zM154.493 485.568c-.48-12.713 5.997-33.261 14.553-46.854 9.916 32.542 23.59 45.015 49.659 45.015 2.319 0 5.758-.24 10.875-.96 3.918-3.678 6.237-9.915 6.237-16.391 0-15.512-8.556-23.827-36.464-36.46-30.947-14.072-41.822-26.785-41.822-48.053 0-27.025 22.39-47.094 52.697-47.094 21.511 0 39.023 4.398 50.618 12.713-1.119 10.634-8.316 27.984-15.513 37.659-8.556-27.984-21.911-38.779-47.819-38.779-1.12 0-2.559 0-5.278.48-4.398 3.678-6.957 9.275-6.957 14.792 0 12.473 6.957 18.709 36.465 32.541 29.827 14.312 41.822 29.584 41.822 53.571 0 28.384-25.189 48.532-60.773 48.532-19.192-.08-37.184-3.998-48.299-10.714m129.384-28.144V407.05h-20.071v-1.359c15.514-11.113 39.263-31.902 55.656-48.293h1.12v27.505c7.836 3.198 27.508 4.877 39.742 5.517v1.119c-11.995 11.514-25.429 15.911-39.263 15.911v45.735c0 11.753 4.398 18.95 16.633 18.95 7.197 0 13.434-2.319 17.113-4.877l.48.48c-5.278 21.268-20.551 28.384-35.105 28.384-23.35.08-36.304-10.314-36.304-38.698" fill="#fff"/><path d="M365.601 471.256v-45.974c0-9.915-2.319-15.272-9.436-21.268l45.74-16.151v31.422l8.556-21.908c4.638-5.757 11.355-9.275 20.311-9.275 3.039 0 6.477.48 8.317.96 0 11.354-3.039 26.545-11.995 36.46-3.918-2.798-8.076-3.918-13.194-3.918-4.878 0-8.797 1.359-11.115 2.799v46.854c0 9.914 2.319 15.271 9.436 21.268h-56.136c7.277-5.997 9.516-11.354 9.516-21.268m172.805 11.273-32.786 13.433c-7.357-4.638-11.515-12.473-12.955-20.069h-.48c-5.118 12.713-12.714 20.549-26.069 20.549-20.551 0-27.028-19.429-27.028-33.501 0-5.277 28.387-19.429 52.856-25.186v-3.198c0-13.593-7.597-22.628-23.349-22.628-12.235 0-20.551 2.319-30.227 6.237l-.24-.24c5.758-14.072 23.83-31.422 48.698-31.422 29.587 0 42.062 15.671 42.062 42.056v32.782c.08 9.914 2.399 15.191 9.516 21.188m-50.618-8.955c.96 0 2.559 0 4.158-.72V447.67c-6.716 0-13.594 1.119-17.752 2.798 0 12.473 3.198 23.108 13.594 23.108m68.211-16.152v-50.372h-20.071v-1.359c15.513-11.113 39.263-31.902 55.656-48.293h1.12v27.505c7.836 3.198 27.508 4.877 39.742 5.517v1.119c-11.995 11.514-25.429 15.911-39.263 15.911v45.735c0 11.753 4.398 18.95 16.633 18.95 7.196 0 13.434-2.319 17.113-4.877l.48.48c-5.278 21.268-20.551 28.384-35.105 28.384-23.429.08-36.304-10.314-36.304-38.698" fill="#fff"/><path d="m745.354 482.53-33.743 13.433c-6.237-3.918-10.875-9.675-12.474-16.391l-28.388 16.631c-19.191 0-34.864-7.836-34.864-36.299v-34.381c0-9.275-1.6-15.271-8.797-21.268l45.98-16.152v63.724c0 13.833 4.639 24.227 22.39 24.227 1.12 0 2.32 0 3.199-.24v-50.612c0-9.915-2.319-15.271-9.436-21.268l46.616-16.151v73.479c.087 9.994 2.403 15.271 9.517 21.268m55.895 12.953v39.737h15.274c-3.434 3.198-5.115 5.997-5.758 9.915h-56.133c7.193-5.997 9.437-11.354 9.437-21.268v-98.105c0-9.915-2.323-15.272-9.437-21.268l46.457-16.631v17.59l33.745-17.351c21.515 1.12 36.068 21.028 36.068 48.693 0 32.542-25.671 59.087-56.854 59.087-4.719.08-8.874-.16-12.799-.4m3.283-87.791c-.96 0-2.078 0-3.196.24v62.126c6.717 11.514 15.512 17.59 25.664 17.59h.483c4.639-7.196 6.955-21.908 6.955-36.06-.159-27.025-11.674-43.895-29.906-43.895M218.385 617.814c0-50.132 37.664-83.633 80.365-83.633 27.988 0 42.461 7.356 48.698 11.113 0 11.994-13.834 31.183-26.788 42.457-2.079-18.23-13.195-45.735-38.543-45.735-1.359 0-2.799 0-4.159.24-11.115 10.874-19.431 29.824-19.431 56.369 0 42.056 22.87 72.52 54.776 72.52 11.515 0 23.11-2.558 34.865-9.435l.48.48c-10.156 21.268-27.268 33.262-58.455 33.262-47.1-.08-71.809-35.18-71.809-77.637m145.057 52.61v-107.86c0-9.914-2.319-15.271-9.436-21.268l46.619-13.832v142.96c0 9.915 2.32 15.272 9.437 21.268h-56.136c7.197-5.996 9.516-11.273 9.516-21.268m171.845 11.354-33.745 13.432c-6.237-3.918-10.875-9.675-12.475-16.391l-28.387 16.631c-19.191 0-34.864-7.836-34.864-36.3V624.77c0-9.274-1.6-15.271-8.797-21.268l45.98-16.151v63.724c0 13.832 4.639 24.226 22.39 24.226 1.12 0 2.319 0 3.198-.24v-50.612c0-9.914-2.319-15.271-9.436-21.268l46.62-16.152v73.479c.08 9.915 2.399 15.271 9.516 21.268m122.427-45.975c0 37.659-29.587 58.927-56.856 58.927-19.671 0-29.347-2.798-38.143-8.555l-18.232 8.075c5.118-6.237 6.477-11.513 6.477-23.347V562.565c0-9.914-2.319-15.271-9.436-21.268l46.62-13.832v76.917l33.506-17.11c15.993 1.199 36.064 13.912 36.064 48.532m-36.464 15.032c0-24.946-11.515-43.895-29.828-43.895-1.119 0-2.319 0-3.198.24v42.056c0 26.305 12.475 37.179 25.669 37.179h.48c3.598-7.436 6.877-18.95 6.877-35.58m19.991 99.785-212.068-11.674c-3.438-.159-6.077-3.038-6.077-6.4v-7.352c0-3.521 2.879-6.478 6.478-6.478h212.068c3.518 0 6.477 2.877 6.477 6.478v18.947a6.59 6.59 0 0 1-6.877 6.479" fill="#fff"/></svg>