<svg xmlns="http://www.w3.org/2000/svg" width="500" height="500" fill='#d6143f'><defs><clipPath id="a"><circle cx="21.5" cy="211.5" r="9.5"/><circle cx="21.5" cy="287.5" r="9.5"/><circle cx="40.5" cy="173.5" r="9.5"/><path d="M50 259v-19h-9.5a9.5 9.5 0 0 0 0 19m9.5 76v-19h-9.5a9.5 9.5 0 0 0 0 19"/><circle cx="59.5" cy="211.5" r="9.5"/><path d="M50 240h19v19H50zm0 19h19v19H50zm19 19H50v9.5a9.5 9.5 0 0 0 19 0M50 316h19v19H50zm19-133h19v-19h-9.5a9.5 9.5 0 0 0-9.5 9.5m19 9.5H69v9.5a9.5 9.5 0 0 0 19 0M69 240h19v19H69zm0 19h19v19H69zm0 57h19v19H69zm19-152v19h9.5a9.5 9.5 0 0 0 0-19M88 240v19h19v-9.5a9.5 9.5 0 0 0-9.5-9.5M88 259h19v19H88zm19 38v-19H88v9.5a9.5 9.5 0 0 0 9.5 9.5M88 316h19v19H88z"/><circle cx="116.5" cy="230.5" r="9.5"/><path d="M107 278h19v19h-19zm0 38h19v19h-19zm38-133v-19h-9.5a9.5 9.5 0 0 0 0 19"/><circle cx="135.5" cy="211.5" r="9.5"/><circle cx="135.5" cy="249.5" r="9.5"/><path d="M126 278v19h9.5a9.5 9.5 0 0 0 0-19m-9.5 38h19v19h-19zm19-152h19v19h-19zm19 76v-19h-9.5a9.5 9.5 0 0 0 0 19m9.5 38v-19h-9.5a9.5 9.5 0 0 0 0 19m-9.5 38h19v-9.5a9.5 9.5 0 0 0-19 0m0 9.5h19v19h-19z"/><circle cx="173.5" cy="40.5" r="9.5"/><path d="M164 88h19v-9.5a9.5 9.5 0 0 0-19 0m0 9.5h19v19h-19zm0 19h19v19h-19zm19 19h-19v9.5a9.5 9.5 0 0 0 19 0M164 164h19v19h-19zm0 57v19h19v-9.5a9.5 9.5 0 0 0-9.5-9.5m-9.5 19h19v19h-19zm0 19h19v19h-19zm0 57h19v19h-19zm0 19h19v19h-19zm19 19h-19v9.5a9.5 9.5 0 0 0 19 0M164 411h19v-19h-9.5a9.5 9.5 0 0 0-9.5 9.5m19 28.5v-19h-19v9.5a9.5 9.5 0 0 0 9.5 9.5m9.5 38v-19h-9.5a9.5 9.5 0 0 0 0 19"/><circle cx="192.5" cy="59.5" r="9.5"/><path d="M183 88h19v19h-19zm19 19h-19v19h9.5a9.5 9.5 0 0 0 9.5-9.5M183 164v19h9.5a9.5 9.5 0 0 0 0-19m-9.5 95h19v19h-19zm0 19h19v19h-19zm0 19h19v19h-19zm19 19h-19v19h9.5a9.5 9.5 0 0 0 9.5-9.5M183 392h19v-19h-9.5a9.5 9.5 0 0 0-9.5 9.5m0 9.5h19v19h-19zm0 19h19v19h-19zm0 19h19v19h-19zm19 19h-19v19h9.5a9.5 9.5 0 0 0 9.5-9.5M221 50V31h-9.5a9.5 9.5 0 0 0 0 19M202 88h19v-9.5a9.5 9.5 0 0 0-19 0m0 9.5h19v19h-19z"/><circle cx="211.5" cy="135.5" r="9.5"/><circle cx="211.5" cy="211.5" r="9.5"/><path d="M202 259h19v-19h-9.5a9.5 9.5 0 0 0-9.5 9.5m0 9.5h19v19h-19zm0 38h19v19h-19zm0 76v19h9.5a9.5 9.5 0 0 0 0-19m-9.5 38h19v19h-19zm19 76v-19h-9.5a9.5 9.5 0 0 0 0 19M221 31h19v-9.5a9.5 9.5 0 0 0-19 0m0 9.5h19v19h-19zm0 57h19v19h-19zm0 152h19v19h-19zm0 19h19v19h-19zm0 38v19h9.5a9.5 9.5 0 0 0 0-19m-9.5 57h19v-9.5a9.5 9.5 0 0 0-19 0m19 28.5v-19h-19v9.5a9.5 9.5 0 0 0 9.5 9.5m-9.5 38v19h19v-9.5a9.5 9.5 0 0 0-9.5-9.5m-9.5 19h19v19h-19zm0 19h19v19h-19zm0 19h19v19h-19zm19-437v19h9.5a9.5 9.5 0 0 0 0-19M240 88h19V69h-9.5a9.5 9.5 0 0 0-9.5 9.5m0 9.5h19v19h-19zm0 19h19v19h-19zm19 19h-19v9.5a9.5 9.5 0 0 0 19 0M240 183h19v-19h-9.5a9.5 9.5 0 0 0-9.5 9.5m19 28.5v-19h-19v9.5a9.5 9.5 0 0 0 9.5 9.5m-9.5 38h19v-9.5a9.5 9.5 0 0 0-19 0m0 9.5h19v19h-19z"/><path d="M259 259h-19v19h9.5a9.5 9.5 0 0 0 9.5-9.5m0 66.5v-19h-9.5a9.5 9.5 0 0 0 0 19m-9.5 19v19h19v-9.5a9.5 9.5 0 0 0-9.5-9.5m9.5 19h-19v9.5a9.5 9.5 0 0 0 19 0M240 468v19h9.5a9.5 9.5 0 0 0 0-19M278 31V12h-9.5a9.5 9.5 0 0 0 0 19M259 69h19V50h-9.5a9.5 9.5 0 0 0-9.5 9.5m0 9.5h19v19h-19zm19 19h-19v19h9.5a9.5 9.5 0 0 0 9.5-9.5M259 164v19h19v-9.5a9.5 9.5 0 0 0-9.5-9.5m-9.5 19h19v19h-19zm19 38v-19h-19v9.5a9.5 9.5 0 0 0 9.5 9.5m-9.5 19h19v19h-19zm0 57h19v-9.5a9.5 9.5 0 0 0-19 0m0 9.5h19v19h-19z"/><path d="M278 316h-19v19h9.5a9.5 9.5 0 0 0 9.5-9.5m0 85.5v-19h-9.5a9.5 9.5 0 0 0 0 19m9.5 57v-19h-9.5a9.5 9.5 0 0 0 0 19M278 12h19v19h-19zm0 19h19v19h-19zm0 19h19v19h-19zm0 19h19v19h-19zm0 76h19v-9.5a9.5 9.5 0 0 0-19 0m19 28.5v-19h-19v9.5a9.5 9.5 0 0 0 9.5 9.5m-9.5 38h19v19h-19zm0 38h19v19h-19zm19 19h-19v9.5a9.5 9.5 0 0 0 19 0M278 297v19h9.5a9.5 9.5 0 0 0 0-19m-9.5 95v19h19v-9.5a9.5 9.5 0 0 0-9.5-9.5m-9.5 19h19v19h-19zm0 19h19v19h-19zm0 19h19v19h-19zm19 38v-19h-19v9.5a9.5 9.5 0 0 0 9.5 9.5M297 12h19v19h-19zm0 57v19h9.5a9.5 9.5 0 0 0 0-19m-9.5 76h19v19h-19zm0 57h19v-19h-9.5a9.5 9.5 0 0 0-9.5 9.5m0 9.5h19v19h-19zm0 38h19v19h-19zm0 95h19v-19h-9.5a9.5 9.5 0 0 0-9.5 9.5m0 9.5h19v19h-19zm0 19h19v19h-19zm19 38v-19h-19v9.5a9.5 9.5 0 0 0 9.5 9.5m-9.5 19v19h19v-9.5a9.5 9.5 0 0 0-9.5-9.5m-9.5 19h19v19h-19zm0 38v19h9.5a9.5 9.5 0 0 0 0-19M316 12v19h9.5a9.5 9.5 0 0 0 0-19"/><circle cx="325.5" cy="59.5" r="9.5"/><circle cx="325.5" cy="97.5" r="9.5"/><path d="M316 145h19v-9.5a9.5 9.5 0 0 0-19 0m19 9.5h-19v19h9.5a9.5 9.5 0 0 0 9.5-9.5M316 183h19v19h-19zm0 19h19v19h-19zm0 19h19v19h-19zm0 19h19v19h-19zm19 19h-19v9.5a9.5 9.5 0 0 0 19 0M316 316h19v19h-19zm0 19h19v19h-19zm0 19h19v19h-19zm0 19h19v19h-19zm19 38v-19h-19v9.5a9.5 9.5 0 0 0 9.5 9.5m-9.5 19h19v19h-19z"/><path d="M335 468v-19h-19v9.5a9.5 9.5 0 0 0 9.5 9.5m9.5-285h19v-9.5a9.5 9.5 0 0 0-19 0m19 9.5h-19v19h9.5a9.5 9.5 0 0 0 9.5-9.5M335 221v19h19v-9.5a9.5 9.5 0 0 0-9.5-9.5m9.5 19h-19v19h9.5a9.5 9.5 0 0 0 9.5-9.5m0 47.5v-19h-9.5a9.5 9.5 0 0 0 0 19m-9.5 19h19v19h-19zm0 76h19v19h-19zm0 38v19h19v-9.5a9.5 9.5 0 0 0-9.5-9.5m9.5 19h-19v19h9.5a9.5 9.5 0 0 0 9.5-9.5m0-180.5h19v-9.5a9.5 9.5 0 0 0-19 0m0 9.5h19v19h-19zm0 38h19v19h-19z"/><circle cx="363.5" cy="363.5" r="9.5"/><path d="M354 392h19v19h-19z"/><circle cx="363.5" cy="477.5" r="9.5"/><path d="M373 183h19v-19h-9.5a9.5 9.5 0 0 0-9.5 9.5m19 28.5v-19h-19v9.5a9.5 9.5 0 0 0 9.5 9.5m-9.5 38h19v-9.5a9.5 9.5 0 0 0-19 0m19 9.5h-19v9.5a9.5 9.5 0 0 0 19 0M373 278h19v19h-19zm0 19h19v19h-19zm0 19h19v19h-19zm0 76h19v19h-19z"/><circle cx="382.5" cy="458.5" r="9.5"/><path d="M392 164h19v19h-19zm0 19h19v19h-19zm19 38v-19h-19v9.5a9.5 9.5 0 0 0 9.5 9.5m-9.5 57h19v-9.5a9.5 9.5 0 0 0-19 0m0 9.5h19v19h-19zm0 19h19v19h-19zm0 19h19v19h-19zm0 19h19v19h-19zm0 19h19v19h-19zm0 19h19v19h-19zm19 19h-19v19h9.5a9.5 9.5 0 0 0 9.5-9.5m0 85.5v-19h-9.5a9.5 9.5 0 0 0 0 19m9.5-323v19h9.5a9.5 9.5 0 0 0 0-19m-9.5 38h19v19h-19zm19 57v-19h-9.5a9.5 9.5 0 0 0 0 19m-9.5 38h19v19h-19zm0 38h19v19h-19zm19 19h-19v19h9.5a9.5 9.5 0 0 0 9.5-9.5M411 468h19v-19h-9.5a9.5 9.5 0 0 0-9.5 9.5m0 9.5h19v19h-19zm19-266h19v-19h-9.5a9.5 9.5 0 0 0-9.5 9.5m0 9.5h19v19h-19zm0 19h19v19h-19zm0 19h19v19h-19zm0 19h19v19h-19zm0 19h19v19h-19zm0 19h19v19h-19zm0 19h19v19h-19zm0 19h19v19h-19zm0 76h19v-19h-9.5a9.5 9.5 0 0 0-9.5 9.5m0 9.5h19v19h-19zm0 19h19v19h-19zm0 19h19v19h-19zm0 19h19v19h-19zm19-285h19v-9.5a9.5 9.5 0 0 0-19 0m19 9.5h-19v19h9.5a9.5 9.5 0 0 0 9.5-9.5M449 240h19v19h-19zm0 19h19v19h-19zm0 76v19h9.5a9.5 9.5 0 0 0 0-19m-9.5 57h19v-9.5a9.5 9.5 0 0 0-19 0m19 9.5h-19v19h9.5a9.5 9.5 0 0 0 9.5-9.5M449 430v19h19v-9.5a9.5 9.5 0 0 0-9.5-9.5m-9.5 19h19v19h-19zm0 19h19v19h-19zm19-228v19h19v-9.5a9.5 9.5 0 0 0-9.5-9.5m9.5 19h-19v19h9.5a9.5 9.5 0 0 0 9.5-9.5"/><circle cx="477.5" cy="325.5" r="9.5"/><circle cx="477.5" cy="420.5" r="9.5"/><path d="M468 468v19h9.5a9.5 9.5 0 0 0 0-19"/></clipPath><clipPath id="b"><path clip-rule="evenodd" d="M12 59.5v38A47.5 47.5 0 0 0 59.5 145h38A47.5 47.5 0 0 0 145 97.5v-38A47.5 47.5 0 0 0 97.5 12h-38A47.5 47.5 0 0 0 12 59.5M59.5 31h38A28.5 28.5 0 0 1 126 59.5v38A28.5 28.5 0 0 1 97.5 126h-38A28.5 28.5 0 0 1 31 97.5v-38A28.5 28.5 0 0 1 59.5 31"/></clipPath><clipPath id="c"><circle cx="78.5" cy="78.5" r="28.5"/></clipPath><clipPath id="d"><path clip-rule="evenodd" d="M439.5 12h-38A47.5 47.5 0 0 0 354 59.5v38a47.5 47.5 0 0 0 47.5 47.5h38A47.5 47.5 0 0 0 487 97.5v-38A47.5 47.5 0 0 0 439.5 12M468 59.5v38a28.5 28.5 0 0 1-28.5 28.5h-38A28.5 28.5 0 0 1 373 97.5v-38A28.5 28.5 0 0 1 401.5 31h38A28.5 28.5 0 0 1 468 59.5"/></clipPath><clipPath id="e"><circle cx="420.5" cy="78.5" r="28.5" transform="rotate(90 420.5 78.5)"/></clipPath><clipPath id="f"><path clip-rule="evenodd" d="M59.5 487h38a47.5 47.5 0 0 0 47.5-47.5v-38A47.5 47.5 0 0 0 97.5 354h-38A47.5 47.5 0 0 0 12 401.5v38A47.5 47.5 0 0 0 59.5 487M31 439.5v-38A28.5 28.5 0 0 1 59.5 373h38a28.5 28.5 0 0 1 28.5 28.5v38A28.5 28.5 0 0 1 97.5 468h-38A28.5 28.5 0 0 1 31 439.5"/></clipPath><clipPath id="g"><circle cx="78.5" cy="420.5" r="28.5" transform="rotate(-90 78.5 420.5)"/></clipPath></defs><path clip-path="url('#clip-path-background-color')" fill="#ffffff00" d="M0 0h500v500H0z"/><path clip-path="url('#a')" d="M0 0h500v500H0z"/><path clip-path="url('#b')" d="M12 12h133v133H12z"/><path clip-path="url('#c')" d="M50 50h57v57H50z"/><path clip-path="url('#d')" d="M354 12h133v133H354z"/><path clip-path="url('#e')" d="M392 50h57v57h-57z"/><path clip-path="url('#f')" d="M12 354h133v133H12z"/><path clip-path="url('#g')" d="M50 392h57v57H50z"/></svg>