<svg width="1440" height="623" viewBox="0 0 1440 623" fill="none" xmlns="http://www.w3.org/2000/svg">
    <rect width="1440" height="623"/>
    <path d="M1169.1 318.3C1168.2 315.8 1168 313.8 1167.9 313C1166.9 299.3 1174.6 286.9 1174.6 286.9C1175 286.2 1179 279.9 1183.7 277.4C1186.4 275.9 1189.2 275.5 1189.2 275.5C1190.3 275.3 1191.3 275.3 1192 275.3C1192.9 273.1 1195.6 266.7 1200.3 263.2C1201.9 262 1203.2 261.6 1203.7 261.4C1205.1 260.8 1207.4 260.3 1211 261.4C1211.2 260.6 1211.6 259.6 1212.3 258.4C1212.5 258.1 1214 255.1 1216.7 253.4C1219.7 251.5 1223.4 251.2 1227.5 251.7C1233.1 252.4 1239.5 255.7 1242.1 261.2C1243.3 263.7 1244 267.3 1243 267.9C1242.6 268.2 1242 268.1 1241.8 268.1C1240.1 267.8 1239.2 265.6 1238.7 264.5C1238.7 264.5 1237 261 1232.4 258.1C1231.8 257.7 1224.3 253.8 1218.5 257.8C1216 259.5 1214.9 262 1214.4 263.2C1215.6 264 1217.7 265.5 1219.2 268.3C1219.8 269.5 1220.8 271.2 1220.8 273.6C1220.8 276.3 1219.6 280.1 1217.3 280.5C1215.6 280.8 1214 279.2 1213.3 278.6C1209.1 274.5 1209.8 267.7 1210.1 265.7C1209.6 265.5 1208.9 265.2 1208 265C1205.6 264.7 1203.8 265.8 1202.7 266.4C1198.1 269.1 1196.3 275.7 1196.1 276.6C1197.2 277.2 1199 278.4 1200.4 280.3C1204.5 285.7 1202.7 292.3 1202.3 293.7C1201.7 295.6 1200.7 298.8 1197.9 300C1197.5 300.2 1195.4 301 1193.3 300.1C1192.6 299.8 1191.7 299.2 1190.8 297.8C1186.7 292 1189 283.9 1189.2 283.4C1189.6 282.2 1190 281.3 1190.2 280.8C1189.7 280.9 1189 281 1188.2 281.3C1180.8 283.8 1177.3 291.7 1175.8 295.1C1174.2 298.6 1173.7 301.5 1173.1 304.4C1171.6 311.9 1172.2 316.8 1172.3 318.1C1172.5 319.4 1172.7 320.5 1172.9 321.2C1172.9 322.8 1172.7 323.2 1172.5 323.2C1171.5 323.3 1169.9 320.6 1169.1 318.3ZM1194.8 281C1194.4 280.9 1194 280.8 1193.8 280.8C1192.9 283 1192.5 285 1192.3 286.4C1191.9 289 1191.3 293.5 1193.7 295.5C1193.9 295.7 1194.9 296.5 1196 296.3C1198 295.9 1198.8 292.3 1198.9 291.8C1199.9 287.5 1198.2 282.2 1194.8 281ZM1214.3 275.6C1214.7 276 1215.5 276.8 1216.3 276.5C1217 276.3 1217.3 275.5 1217.4 275.2C1217.5 274.4 1217.7 272.7 1216.9 270.9C1215.7 268 1213.2 266.7 1212.6 266.4C1212.5 267.7 1212 273.4 1214.3 275.6Z" fill="black"/>
    <path d="M339.7 335.5C337.4 337.1 335.3 337.7 334.6 337.9C320.9 341.7 306.5 335 306.5 335C305.7 334.7 298.4 331.2 294.7 326.1C292.6 323.1 291.5 319.9 291.5 319.9C291.1 318.6 290.8 317.4 290.7 316.6C288.2 316 281.2 313.9 276.5 309C274.9 307.3 274.2 305.9 273.9 305.4C273 303.8 271.9 301.2 272.2 296.7C271.4 296.6 270.2 296.3 268.8 295.8C268.5 295.7 265.1 294.4 262.7 291.5C260.1 288.3 258.9 284 258.5 279.1C257.9 272.4 259.8 264.1 264.9 259.9C267.2 258 270.7 256.5 271.5 257.5C271.9 258 272 258.7 272 258.9C272.1 261 270 262.4 269 263.3C269 263.3 265.8 266 263.9 272.1C263.6 272.9 261.4 282.6 266.8 288.7C269.1 291.3 271.9 292.2 273.2 292.5C273.7 291 274.8 288.2 277.3 285.8C278.3 284.8 279.9 283.3 282.3 282.9C285.1 282.4 289.2 283.1 290.1 285.8C290.8 287.7 289.6 289.9 289 290.9C285.8 296.7 278.7 297.2 276.6 297.3C276.5 297.9 276.3 298.8 276.4 299.9C276.6 302.8 278.1 304.8 279 305.9C282.8 310.8 289.9 311.7 290.9 311.8C291.3 310.3 292.1 308 293.7 305.9C298.3 300 305.4 300.9 306.9 301.1C309 301.4 312.5 302 314.3 305.1C314.5 305.5 315.9 307.8 315.4 310.5C315.2 311.4 314.9 312.5 313.7 314C308.7 320 299.9 318.8 299.4 318.7C298.1 318.5 297.1 318.2 296.5 318C296.7 318.6 297 319.4 297.5 320.3C301.7 328.6 310.5 331.2 314.3 332.3C318.3 333.5 321.3 333.6 324.4 333.7C332.4 334.1 337.2 332.4 338.6 331.9C339.9 331.4 340.9 331 341.6 330.6C343.2 330.2 343.6 330.5 343.8 330.7C344.3 331.7 341.8 334 339.7 335.5ZM295.9 312.2C295.8 312.7 295.9 313.2 295.9 313.5C298.4 314.1 300.4 314.2 301.9 314.2C304.7 314.1 309.3 314 310.8 310.7C310.9 310.4 311.5 309.1 311.1 307.8C310.3 305.4 306.4 305.2 305.8 305.2C301.4 304.9 296.4 308 295.9 312.2ZM285.9 290.2C286.2 289.6 286.8 288.5 286.4 287.6C286 286.8 285.1 286.6 284.9 286.5C284.1 286.5 282.3 286.7 280.6 287.9C277.9 289.9 277.2 293.1 277 293.9C278.3 293.8 284.2 293.3 285.9 290.2Z" fill="black"/>
    <path d="M1279.8 130.3C1278 128.1 1276.2 126 1274.6 123.8C1273.6 122.5 1272.7 121.2 1272 119.8C1271.6 118.9 1271.6 117.7 1271.6 116.6C1271.6 116.2 1271.9 115.8 1272.6 116C1275.7 117 1278.5 118.4 1281.3 120.1C1284 121.7 1286.5 123.6 1289 125.4C1289.2 125.5 1289.4 125.7 1289.5 125.9C1289.6 126.2 1289.7 126.5 1289.8 126.8C1289.4 126.9 1288.9 127.1 1288.7 126.9C1287.4 126.1 1286.1 125.2 1284.8 124.5C1282.7 123.3 1280.6 122.3 1278.4 121.2C1278.3 121.2 1278.2 121.2 1277.9 121.3C1278.4 121.8 1279 122.3 1279.5 122.8C1280.5 123.7 1281.5 124.7 1282.5 125.6C1283.3 126.4 1284.1 127.4 1284.9 128.2C1285.7 128.9 1286.6 129.6 1287.4 130.3C1287.9 130.7 1288.5 131.2 1288.9 131.7C1289.3 132.3 1289.3 132.9 1288.7 133.4C1288.1 133.8 1287.6 134.3 1287 134.7C1286.7 134.9 1286.2 134.9 1285.9 135C1283.5 135.8 1281 136.5 1278.6 137.3C1278.6 137.3 1278.5 137.4 1278.5 137.5C1279.9 137.8 1281.4 138.1 1282.8 138.4C1284.1 138.7 1285.5 139 1286.8 139.3C1288.5 139.7 1290 141.6 1289.9 143.4C1289.7 148 1289.5 152.5 1289.3 157.3C1289.5 157.1 1289.6 157 1289.7 156.8C1291.5 153.4 1293.3 150.1 1295.1 146.7C1295.2 146.5 1295.2 146.1 1295.1 145.9C1294.3 144.5 1294.3 143 1294.4 141.5C1294.5 140.7 1295 140.4 1295.9 140.6C1297.6 140.9 1298.8 142 1300.1 143C1304 146.2 1307.8 149.5 1311.7 152.7C1311.9 152.8 1312.1 153 1312.4 153.3C1311.9 152.1 1311.5 151 1311.1 150.1C1310.1 148 1309.1 145.8 1308 143.7C1307 141.6 1305.9 139.6 1304.9 137.5C1304.7 137.1 1304.7 136.5 1304.7 136C1304.8 135.9 1304.9 135.9 1305 135.8C1305.5 136.1 1306.1 136.5 1306.6 136.8C1310.7 135.1 1314.9 133.4 1319.2 131.7C1315.7 131.9 1312.3 132.2 1308.9 132.4C1307.6 132.5 1306.2 132.3 1304.8 132.1C1303.2 131.9 1302.5 131.1 1302.6 129.5C1302.7 126.8 1302.2 124.2 1301.6 121.5C1301.1 119.2 1301 116.9 1300.7 114.6C1300.7 114.3 1300.5 114 1300.4 113.5C1300.1 114.7 1299.8 115.6 1299.5 116.6C1298.4 120 1297.2 123.4 1296.3 126.8C1295.9 128.3 1295.1 129.3 1293.8 130C1293.3 130.3 1292.4 130.4 1291.9 130.1C1291.5 129.9 1291.3 129.1 1291.2 128.6C1290.6 126.4 1291.6 124.5 1292.3 122.5C1294 117.6 1295.7 112.8 1297.3 107.9C1297.9 105.9 1298.6 105.6 1300.6 106.9C1302 107.8 1302.1 109.2 1302.4 110.6C1302.7 111.6 1302.8 112.6 1302.9 113.7C1303.4 116.6 1303.9 119.4 1304.4 122.3C1304.6 123.7 1304.9 125.1 1305 126.5C1305.1 127.1 1305.6 127.3 1306.1 127.3C1308.3 127.3 1310.6 127.3 1312.8 127.2C1317.1 127 1321.4 126.6 1325.8 126.4C1327.6 126.3 1329.3 127 1330.5 128.5C1331.1 129.2 1331 129.6 1330.3 130.3C1329.1 131.4 1327.6 131.7 1326.2 132.3H1326.1C1322.7 133.3 1319.2 134.4 1315.8 135.4C1313 136.2 1310.2 137 1307.3 137.8C1308.1 139.1 1308.8 140.1 1309.4 141.2C1311.7 145.4 1314.1 149.5 1316.3 153.8C1316.9 155 1317.1 156.5 1317.5 157.8C1317.5 158 1317.5 158.2 1317.4 158.4C1316.4 160.2 1313.8 160.7 1312.2 159.4C1308.1 156.1 1303.9 152.7 1299.8 149.4C1298.9 148.7 1298.1 148.1 1297.1 147.4C1296.6 148.6 1296.1 149.8 1295.6 150.9C1294.4 153.4 1293.2 155.9 1291.9 158.4C1290.9 160.4 1289.7 162.3 1288.6 164.2C1288.4 164.5 1288.3 164.8 1288.2 165.1C1287.7 166.4 1286.4 167.3 1285 167.2C1284.7 167.2 1284.4 166.9 1284.3 166.7C1284.1 165.5 1283.8 164.3 1283.9 163.2C1284.1 156.9 1284.3 150.7 1284.6 144.4C1284.6 143.7 1284.8 142.9 1284.5 142.4C1284.2 142 1283.3 142.1 1282.6 142C1279.4 141.4 1276.2 140.8 1272.9 140.1C1270.6 139.6 1268.3 139.5 1266 139.4C1264.4 139.3 1263.6 138.9 1263.7 136.7C1263.7 136.2 1263.6 135.8 1263.6 135.3C1263.6 134.3 1264 133.9 1265 134C1267.3 134.1 1269.5 133.8 1271.7 133.2C1274.3 132.5 1276.8 131.6 1279.4 130.8C1279.5 130.4 1279.7 130.3 1279.8 130.3Z" fill="black"/>
    <path d="M156.2 452.7C154.3 450.4 152.5 448.2 150.7 445.9C149.7 444.6 148.7 443.2 148 441.7C147.6 440.7 147.6 439.5 147.6 438.4C147.6 438 148 437.5 148.7 437.7C151.9 438.7 154.9 440.3 157.7 442C160.5 443.7 163.1 445.7 165.7 447.6C165.9 447.7 166.1 447.9 166.2 448.1C166.4 448.4 166.4 448.7 166.5 449C166.1 449.1 165.6 449.3 165.3 449.1C163.9 448.3 162.6 447.3 161.2 446.6C159 445.4 156.8 444.3 154.6 443.1C154.5 443 154.4 443.1 154.1 443.2C154.6 443.7 155.2 444.2 155.7 444.7C156.8 445.7 157.8 446.7 158.8 447.7C159.7 448.6 160.4 449.5 161.3 450.4C162.1 451.2 163 451.8 163.9 452.6C164.4 453.1 165 453.5 165.5 454.1C165.9 454.7 165.9 455.4 165.2 455.9C164.6 456.4 164 456.8 163.4 457.2C163.1 457.4 162.6 457.4 162.2 457.5C159.7 458.3 157.1 459.1 154.6 459.9C154.6 459.9 154.5 460 154.5 460.1C156 460.4 157.5 460.7 159 461.1C160.4 461.4 161.8 461.7 163.1 462C164.9 462.4 166.4 464.5 166.4 466.3C166.2 471.1 166 475.9 165.8 480.8C166 480.6 166.1 480.5 166.2 480.3C168.1 476.8 170 473.3 171.8 469.7C171.9 469.5 171.9 469.1 171.8 468.9C171 467.4 171 465.9 171.1 464.3C171.2 463.4 171.8 463.2 172.7 463.3C174.5 463.6 175.8 464.7 177 465.8C181 469.2 185 472.6 189 476C189.2 476.2 189.4 476.3 189.8 476.6C189.3 475.3 188.9 474.2 188.4 473.2C187.4 471 186.3 468.7 185.2 466.5C184.1 464.3 183 462.2 182 460C181.8 459.6 181.8 459 181.8 458.5C181.9 458.4 182 458.4 182.1 458.3C182.7 458.7 183.2 459 183.8 459.4C188.1 457.7 192.5 455.9 196.8 454.1C193.2 454.3 189.7 454.7 186.1 454.8C184.7 454.9 183.3 454.7 181.9 454.5C180.3 454.3 179.5 453.5 179.6 451.8C179.7 448.9 179.1 446.2 178.6 443.4C178.1 441 178 438.6 177.6 436.2C177.6 435.9 177.4 435.6 177.3 435.1C176.9 436.3 176.7 437.3 176.4 438.3C175.3 441.9 174 445.4 173.1 449C172.7 450.6 171.8 451.6 170.5 452.3C170 452.6 169.1 452.7 168.5 452.5C168.1 452.3 167.9 451.5 167.7 450.9C167.1 448.6 168.1 446.6 168.8 444.5C170.6 439.4 172.3 434.3 174 429.2C174.7 427.1 175.3 426.8 177.4 428.2C178.8 429.2 179 430.6 179.3 432C179.6 433 179.7 434.1 179.9 435.2C180.4 438.2 181 441.2 181.5 444.2C181.8 445.7 182 447.2 182.2 448.6C182.3 449.3 182.8 449.4 183.3 449.4C185.6 449.4 188 449.5 190.3 449.3C194.8 449.1 199.3 448.7 203.8 448.5C205.7 448.4 207.4 449.1 208.6 450.7C209.2 451.5 209.1 451.9 208.4 452.5C207.2 453.7 205.6 454 204.1 454.6H204C200.4 455.7 196.9 456.8 193.3 457.8C190.4 458.7 187.5 459.5 184.4 460.3C185.2 461.6 185.9 462.7 186.6 463.8C189 468.2 191.5 472.6 193.8 477C194.5 478.3 194.7 479.8 195.1 481.2C195.2 481.4 195.1 481.6 195 481.8C194 483.7 191.3 484.2 189.6 482.9C185.3 479.4 181 475.9 176.7 472.4C175.8 471.7 174.9 471 173.9 470.3C173.4 471.6 172.9 472.8 172.3 474C171 476.6 169.8 479.3 168.5 481.9C167.4 484 166.2 485.9 165.1 487.9C164.9 488.2 164.8 488.5 164.7 488.8C164.2 490.2 162.9 491.1 161.4 491C161.1 491 160.7 490.7 160.7 490.4C160.5 489.2 160.2 487.9 160.2 486.7C160.4 480.1 160.6 473.6 160.8 467C160.8 466.3 161 465.4 160.7 464.9C160.4 464.5 159.4 464.6 158.8 464.4C155.5 463.7 152.1 463.1 148.8 462.4C146.4 461.9 144 461.8 141.6 461.6C139.9 461.5 139.1 461.1 139.2 458.7C139.2 458.2 139.1 457.7 139.1 457.2C139.1 456.2 139.5 455.8 140.5 455.8C142.9 456 145.2 455.6 147.5 454.9C150.2 454.2 152.8 453.3 155.5 452.5C155.9 452.9 156.1 452.8 156.2 452.7Z" fill="black"/>
    <path d="M1322.8 359.1C1321.1 358.1 1319.4 357 1317.7 356C1317.3 355.7 1316.7 355.5 1316.5 355.1C1316.2 354.5 1316.1 353.7 1316.1 353C1316.1 352.3 1317.6 351.6 1318.5 351.7C1320.7 352 1322.5 353.3 1324.3 354.4C1325 354.8 1325.6 355.3 1326.3 355.7C1327 354.1 1327.7 352.5 1328.4 350.9C1328.8 350 1329.3 349.1 1330 348.4C1330.6 347.8 1331.6 347.4 1332.5 347.2C1333.3 347 1333.7 347.6 1333.7 348.4C1333.8 350.5 1333.2 352.6 1332.6 354.6C1332.4 355.1 1332.3 355.6 1332.1 356.2C1333.6 356.1 1335 356 1336.5 355.8C1338.4 355.5 1339.8 356 1340.7 357.5C1339.7 358.9 1338.2 359.5 1336.6 360.1C1335.4 360.5 1334.2 361 1332.9 361.4C1334.6 363 1336.2 364.6 1337.8 366C1339.1 367.1 1339.5 369 1338.5 370.5C1335.8 370.8 1334.6 368.7 1332.9 367.4C1331.6 366.4 1330.5 365.3 1329.3 364.2C1328.9 365.3 1328.6 366.3 1328.2 367.2C1327.3 369.1 1327.1 371.1 1326.7 373.1C1326.6 373.8 1326.3 374.5 1325.9 375.1C1325.7 375.5 1325.1 376.1 1324.8 376.1C1324.3 376 1323.8 375.5 1323.4 375.1C1322 373.3 1322.3 371.2 1322.7 369.2C1322.9 368 1323.1 366.8 1323.4 365.5C1323.1 365.6 1322.9 365.7 1322.7 365.7C1320 366.7 1317.3 367.7 1314.5 368.6C1313.8 368.9 1313.3 368.8 1313.3 367.8C1313.3 367.3 1313.1 366.8 1313.1 366.3C1313 364.8 1313.8 363.8 1315.2 363C1317.7 361.8 1320.2 360.5 1322.8 359.1Z" fill="black"/>
    <path d="M185.1 160C183.1 158.8 181.1 157.6 179.1 156.4C178.6 156.1 177.9 155.8 177.7 155.4C177.4 154.7 177.3 153.8 177.2 153C177.2 152.2 178.9 151.4 180 151.5C182.6 151.9 184.6 153.4 186.8 154.6C187.6 155 188.3 155.6 189.1 156.2C189.9 154.3 190.7 152.4 191.6 150.6C192.1 149.6 192.6 148.4 193.4 147.7C194.1 147 195.3 146.5 196.3 146.3C197.2 146.1 197.7 146.8 197.7 147.7C197.8 150.2 197.1 152.6 196.4 154.9C196.2 155.5 196 156.1 195.8 156.8C197.5 156.6 199.2 156.5 200.9 156.3C203.2 156 204.8 156.5 205.8 158.3C204.6 159.9 202.9 160.7 201 161.3C199.6 161.8 198.2 162.3 196.7 162.8C198.7 164.7 200.5 166.5 202.5 168.2C204 169.5 204.5 171.8 203.4 173.4C200.3 173.7 198.9 171.3 196.9 169.8C195.4 168.7 194.1 167.3 192.7 166C192.2 167.3 191.9 168.4 191.4 169.5C190.4 171.7 190.1 174 189.7 176.4C189.6 177.2 189.2 178 188.8 178.7C188.5 179.2 187.9 179.9 187.6 179.8C187 179.7 186.4 179.1 186 178.6C184.3 176.5 184.7 174.1 185.2 171.7C185.5 170.3 185.7 168.9 186 167.3C185.6 167.4 185.4 167.5 185.2 167.6C182 168.7 178.9 169.9 175.7 171C174.9 171.3 174.3 171.2 174.3 170.1C174.3 169.5 174.1 168.9 174 168.3C173.9 166.5 174.8 165.3 176.4 164.5C179.2 163.2 182 161.7 185.1 160Z" fill="black"/>
</svg>
