<svg width="375" height="530" viewBox="0 0 375 530" fill="none" xmlns="http://www.w3.org/2000/svg">
    <g clipPath="url(#clip0_2001_1194)">
        <rect width="375" height="530"/>
        <path d="M35.4831 322.779C34.2072 321.235 32.9985 319.758 31.7897 318.213C31.1182 317.34 30.4467 316.4 29.9766 315.393C29.708 314.721 29.708 313.915 29.708 313.177C29.708 312.908 29.9766 312.572 30.4467 312.707C32.5955 313.378 34.6101 314.453 36.4904 315.594C38.3707 316.736 40.1167 318.079 41.8626 319.355C41.9969 319.422 42.1312 319.556 42.1984 319.69C42.3327 319.892 42.3327 320.093 42.3999 320.295C42.1312 320.362 41.7955 320.496 41.594 320.362C40.6539 319.825 39.7809 319.153 38.8408 318.683C37.3634 317.877 35.886 317.139 34.4087 316.333C34.3415 316.266 34.2744 316.333 34.0729 316.4C34.4087 316.736 34.8116 317.071 35.1474 317.407C35.886 318.079 36.5576 318.75 37.2291 319.422C37.8335 320.026 38.3035 320.631 38.9079 321.235C39.4451 321.772 40.0495 322.175 40.6539 322.712C40.9896 323.048 41.3926 323.317 41.7283 323.72C41.9969 324.123 41.9969 324.593 41.5269 324.928C41.124 325.264 40.721 325.533 40.3181 325.801C40.1167 325.936 39.7809 325.936 39.5123 326.003C37.8335 326.54 36.0875 327.077 34.4087 327.614C34.4087 327.614 34.3415 327.682 34.3415 327.749C35.3488 327.95 36.3561 328.152 37.3634 328.42C38.3035 328.622 39.2437 328.823 40.1167 329.025C41.3254 329.293 42.3327 330.703 42.3327 331.912C42.1984 335.136 42.0641 338.359 41.9298 341.649C42.0641 341.515 42.1312 341.448 42.1984 341.314C43.4743 338.963 44.7502 336.613 45.959 334.195C46.0261 334.061 46.0261 333.793 45.959 333.658C45.4217 332.651 45.4217 331.644 45.4889 330.569C45.556 329.965 45.959 329.831 46.5633 329.898C47.7721 330.099 48.6451 330.838 49.4509 331.576C52.137 333.86 54.8231 336.143 57.5092 338.426C57.6435 338.56 57.7778 338.628 58.0465 338.829C57.7107 337.956 57.4421 337.217 57.1063 336.546C56.4348 335.068 55.6961 333.524 54.9574 332.047C54.2187 330.569 53.4801 329.159 52.8085 327.682C52.6742 327.413 52.6742 327.01 52.6742 326.674C52.7414 326.607 52.8085 326.607 52.8757 326.54C53.2786 326.809 53.6144 327.01 54.0173 327.279C56.9049 326.137 59.8596 324.928 62.7471 323.72C60.3296 323.854 57.9793 324.123 55.5618 324.19C54.6217 324.257 53.6815 324.123 52.7414 323.988C51.6669 323.854 51.1297 323.317 51.1969 322.175C51.264 320.228 50.8611 318.415 50.5253 316.534C50.1896 314.923 50.1224 313.311 49.8538 311.699C49.8538 311.498 49.7195 311.296 49.6524 310.961C49.3837 311.766 49.2494 312.438 49.048 313.109C48.3093 315.527 47.4363 317.877 46.8319 320.295C46.5633 321.369 45.959 322.041 45.086 322.511C44.7502 322.712 44.1458 322.779 43.7429 322.645C43.4743 322.511 43.34 321.974 43.2057 321.571C42.8028 320.026 43.4743 318.683 43.9444 317.273C45.1531 313.848 46.2947 310.423 47.4363 306.999C47.9064 305.588 48.3093 305.387 49.7195 306.327C50.6596 306.999 50.794 307.939 50.9954 308.879C51.1969 309.55 51.264 310.289 51.3983 311.028C51.7341 313.042 52.137 315.057 52.4728 317.071C52.6742 318.079 52.8085 319.086 52.9428 320.026C53.01 320.496 53.3458 320.563 53.6815 320.563C55.226 320.563 56.8377 320.631 58.3822 320.496C61.4041 320.362 64.426 320.093 67.4478 319.959C68.7237 319.892 69.8653 320.362 70.6712 321.436C71.0741 321.974 71.0069 322.242 70.5369 322.645C69.731 323.451 68.6566 323.652 67.6493 324.055H67.5821C65.1646 324.794 62.8143 325.533 60.3968 326.204C58.4494 326.809 56.5019 327.346 54.4202 327.883C54.9574 328.756 55.4275 329.495 55.8976 330.233C57.5092 333.188 59.1881 336.143 60.7326 339.098C61.2026 339.971 61.3369 340.978 61.6056 341.918C61.6727 342.052 61.6055 342.187 61.5384 342.321C60.8669 343.597 59.0537 343.933 57.9122 343.06C55.0246 340.709 52.137 338.359 49.2494 336.009C48.6451 335.538 48.0407 335.068 47.3692 334.598C47.0334 335.471 46.6976 336.277 46.2947 337.083C45.4217 338.829 44.6159 340.642 43.7429 342.388C43.0042 343.798 42.1984 345.074 41.4597 346.417C41.3254 346.619 41.2583 346.82 41.1911 347.022C40.8553 347.962 39.9824 348.566 38.9751 348.499C38.7736 348.499 38.505 348.298 38.505 348.096C38.3707 347.29 38.1692 346.417 38.1692 345.611C38.3035 341.179 38.4378 336.814 38.5721 332.382C38.5721 331.912 38.7065 331.308 38.505 330.972C38.3035 330.703 37.632 330.771 37.2291 330.636C35.0131 330.166 32.7299 329.763 30.5138 329.293C28.9022 328.958 27.2905 328.89 25.6788 328.756C24.5372 328.689 24 328.42 24.0671 326.809C24.0671 326.473 24 326.137 24 325.801C24 325.13 24.2686 324.861 24.9401 324.861C26.5518 324.996 28.0963 324.727 29.6408 324.257C31.454 323.787 33.1999 323.182 35.0131 322.645C35.2817 322.914 35.416 322.847 35.4831 322.779Z" fill="black"/>
        <path d="M226.866 359.868C226.262 358.189 226.127 356.846 226.06 356.309C225.389 347.109 230.559 338.782 230.559 338.782C230.828 338.312 233.514 334.081 236.67 332.402C238.483 331.395 240.364 331.126 240.364 331.126C241.102 330.992 241.774 330.992 242.244 330.992C242.848 329.515 244.662 325.217 247.818 322.867C248.892 322.061 249.765 321.792 250.101 321.658C251.041 321.255 252.586 320.919 255.003 321.658C255.137 321.121 255.406 320.449 255.876 319.643C256.01 319.442 257.018 317.427 258.831 316.286C260.845 315.01 263.33 314.808 266.083 315.144C269.844 315.614 274.142 317.83 275.887 321.523C276.693 323.202 277.163 325.62 276.492 326.023C276.223 326.224 275.82 326.157 275.686 326.157C274.544 325.956 273.94 324.478 273.604 323.74C273.604 323.74 272.463 321.389 269.374 319.442C268.971 319.173 263.934 316.554 260.039 319.24C258.361 320.382 257.622 322.061 257.286 322.867C258.092 323.404 259.502 324.411 260.509 326.291C260.912 327.097 261.584 328.239 261.584 329.85C261.584 331.664 260.778 334.215 259.234 334.484C258.092 334.685 257.018 333.611 256.548 333.208C253.727 330.455 254.197 325.888 254.399 324.545C254.063 324.411 253.593 324.21 252.988 324.075C251.377 323.874 250.168 324.612 249.429 325.015C246.34 326.829 245.132 331.261 244.997 331.865C245.736 332.268 246.945 333.074 247.885 334.35C250.638 337.976 249.429 342.408 249.161 343.348C248.758 344.624 248.086 346.773 246.206 347.579C245.937 347.713 244.527 348.25 243.117 347.646C242.647 347.444 242.043 347.042 241.438 346.101C238.685 342.207 240.229 336.767 240.364 336.431C240.632 335.626 240.901 335.021 241.035 334.685C240.699 334.753 240.229 334.82 239.692 335.021C234.723 336.7 232.373 342.005 231.365 344.288C230.291 346.639 229.955 348.586 229.552 350.533C228.545 355.57 228.948 358.86 229.015 359.733C229.149 360.606 229.284 361.345 229.418 361.815C229.418 362.89 229.283 363.158 229.149 363.158C228.478 363.225 227.403 361.412 226.866 359.868ZM244.124 334.82C243.856 334.753 243.587 334.685 243.453 334.685C242.848 336.163 242.58 337.506 242.445 338.446C242.177 340.192 241.774 343.214 243.386 344.557C243.52 344.691 244.191 345.228 244.93 345.094C246.273 344.825 246.81 342.408 246.878 342.072C247.549 339.185 246.407 335.626 244.124 334.82ZM257.219 331.193C257.488 331.462 258.025 331.999 258.562 331.798C259.032 331.664 259.234 331.126 259.301 330.925C259.368 330.388 259.502 329.246 258.965 328.037C258.159 326.09 256.48 325.217 256.077 325.015C256.01 325.888 255.675 329.716 257.219 331.193Z" fill="black"/>
        <path d="M320.879 232.241C319.67 230.764 318.461 229.354 317.387 227.876C316.715 227.003 316.111 226.13 315.641 225.19C315.372 224.586 315.372 223.78 315.372 223.041C315.372 222.773 315.574 222.504 316.044 222.638C318.125 223.31 320.006 224.25 321.886 225.392C323.699 226.466 325.378 227.742 327.057 228.951C327.191 229.018 327.325 229.152 327.393 229.287C327.46 229.488 327.527 229.69 327.594 229.891C327.325 229.958 326.99 230.092 326.855 229.958C325.982 229.421 325.109 228.817 324.236 228.346C322.826 227.541 321.416 226.869 319.939 226.13C319.871 226.13 319.804 226.13 319.603 226.198C319.939 226.533 320.342 226.869 320.677 227.205C321.349 227.809 322.02 228.481 322.692 229.085C323.229 229.622 323.766 230.294 324.304 230.831C324.841 231.301 325.445 231.771 325.982 232.241C326.318 232.51 326.721 232.846 326.99 233.181C327.258 233.584 327.258 233.987 326.855 234.323C326.452 234.592 326.117 234.927 325.714 235.196C325.512 235.33 325.177 235.33 324.975 235.397C323.363 235.935 321.685 236.405 320.073 236.942C320.073 236.942 320.006 237.009 320.006 237.076C320.946 237.278 321.953 237.479 322.893 237.681C323.766 237.882 324.707 238.084 325.579 238.285C326.721 238.554 327.728 239.83 327.661 241.038C327.527 244.127 327.393 247.149 327.258 250.373C327.393 250.238 327.46 250.171 327.527 250.037C328.736 247.754 329.944 245.538 331.153 243.254C331.22 243.12 331.22 242.851 331.153 242.717C330.616 241.777 330.616 240.77 330.683 239.762C330.75 239.225 331.086 239.024 331.69 239.158C332.832 239.36 333.638 240.098 334.511 240.77C337.13 242.919 339.682 245.135 342.3 247.284C342.435 247.351 342.569 247.485 342.771 247.686C342.435 246.881 342.166 246.142 341.898 245.538C341.226 244.127 340.555 242.65 339.816 241.24C339.144 239.83 338.406 238.487 337.734 237.076C337.6 236.808 337.6 236.405 337.6 236.069C337.667 236.002 337.734 236.002 337.801 235.935C338.137 236.136 338.54 236.405 338.876 236.606C341.629 235.465 344.449 234.323 347.337 233.181C344.987 233.316 342.703 233.517 340.42 233.652C339.547 233.719 338.607 233.584 337.667 233.45C336.593 233.316 336.122 232.779 336.19 231.704C336.257 229.891 335.921 228.145 335.518 226.332C335.182 224.787 335.115 223.243 334.914 221.698C334.914 221.497 334.779 221.295 334.712 220.96C334.511 221.765 334.309 222.37 334.108 223.041C333.369 225.325 332.563 227.608 331.959 229.891C331.69 230.898 331.153 231.57 330.28 232.04C329.944 232.241 329.34 232.308 329.004 232.107C328.736 231.973 328.601 231.435 328.534 231.1C328.131 229.622 328.803 228.346 329.273 227.003C330.414 223.713 331.556 220.49 332.631 217.199C333.033 215.856 333.503 215.655 334.847 216.528C335.787 217.132 335.854 218.072 336.055 219.012C336.257 219.684 336.324 220.355 336.391 221.094C336.727 223.041 337.063 224.922 337.398 226.869C337.533 227.809 337.734 228.749 337.801 229.689C337.868 230.092 338.204 230.227 338.54 230.227C340.017 230.227 341.562 230.227 343.039 230.16C345.927 230.025 348.814 229.757 351.769 229.622C352.978 229.555 354.119 230.025 354.925 231.033C355.328 231.503 355.261 231.771 354.791 232.241C353.985 232.98 352.978 233.181 352.038 233.584H351.97C349.687 234.256 347.337 234.995 345.054 235.666C343.174 236.203 341.293 236.741 339.346 237.278C339.883 238.151 340.353 238.822 340.756 239.561C342.301 242.381 343.912 245.135 345.39 248.022C345.792 248.828 345.927 249.835 346.195 250.708C346.195 250.843 346.195 250.977 346.128 251.111C345.457 252.32 343.711 252.656 342.636 251.783C339.883 249.567 337.063 247.284 334.309 245.067C333.705 244.597 333.168 244.194 332.496 243.724C332.16 244.53 331.825 245.336 331.489 246.075C330.683 247.754 329.877 249.432 329.004 251.111C328.333 252.454 327.527 253.73 326.788 255.006C326.654 255.208 326.587 255.409 326.52 255.61C326.184 256.483 325.311 257.088 324.371 257.021C324.169 257.021 323.968 256.819 323.901 256.685C323.766 255.879 323.565 255.073 323.632 254.335C323.766 250.104 323.901 245.94 324.102 241.71C324.102 241.24 324.236 240.703 324.035 240.367C323.833 240.098 323.229 240.165 322.759 240.098C320.61 239.695 318.461 239.292 316.245 238.822C314.701 238.487 313.156 238.419 311.612 238.352C310.537 238.285 310 238.016 310.067 236.539C310.067 236.203 310 235.935 310 235.599C310 234.927 310.269 234.659 310.94 234.726C312.485 234.793 313.962 234.592 315.439 234.189C317.185 233.719 318.864 233.114 320.61 232.577C320.677 232.308 320.812 232.241 320.879 232.241Z" fill="black"/>
        <path d="M330.08 387.266C328.938 386.594 327.797 385.856 326.655 385.184C326.387 384.983 325.984 384.848 325.849 384.58C325.648 384.177 325.581 383.64 325.581 383.17C325.581 382.7 326.588 382.23 327.192 382.297C328.67 382.498 329.879 383.371 331.087 384.11C331.557 384.378 331.96 384.714 332.43 384.983C332.9 383.908 333.371 382.834 333.841 381.759C334.109 381.155 334.445 380.551 334.915 380.081C335.318 379.678 335.989 379.409 336.594 379.275C337.131 379.141 337.4 379.543 337.4 380.081C337.467 381.491 337.064 382.901 336.661 384.244C336.527 384.58 336.46 384.916 336.325 385.319C337.332 385.251 338.273 385.184 339.28 385.05C340.556 384.848 341.496 385.184 342.1 386.192C341.429 387.132 340.422 387.535 339.347 387.938C338.541 388.206 337.735 388.542 336.862 388.81C338.004 389.885 339.079 390.959 340.153 391.9C341.026 392.638 341.295 393.914 340.623 394.921C338.81 395.123 338.004 393.713 336.862 392.84C335.989 392.168 335.251 391.429 334.445 390.691C334.176 391.429 333.975 392.101 333.706 392.705C333.102 393.981 332.968 395.324 332.699 396.667C332.632 397.137 332.43 397.608 332.162 398.01C332.027 398.279 331.625 398.682 331.423 398.682C331.087 398.615 330.752 398.279 330.483 398.01C329.543 396.802 329.744 395.391 330.013 394.048C330.147 393.243 330.281 392.437 330.483 391.564C330.281 391.631 330.147 391.698 330.013 391.698C328.2 392.37 326.387 393.041 324.506 393.645C324.036 393.847 323.701 393.78 323.701 393.108C323.701 392.773 323.566 392.437 323.566 392.101C323.499 391.094 324.036 390.422 324.976 389.885C326.655 389.079 328.334 388.206 330.08 387.266Z" fill="black"/>
        <path d="M98.459 39.223C97.116 38.4172 95.7729 37.6113 94.4299 36.8055C94.0941 36.604 93.624 36.4026 93.4897 36.134C93.2883 35.6639 93.2211 35.0595 93.1539 34.5223C93.1539 33.9851 94.2955 33.4479 95.0342 33.515C96.7802 33.7836 98.1233 34.7909 99.6006 35.5968C100.138 35.8654 100.608 36.2683 101.145 36.6712C101.682 35.3953 102.22 34.1194 102.824 32.9106C103.16 32.2391 103.495 31.4333 104.033 30.9632C104.503 30.4931 105.309 30.1574 105.98 30.0231C106.585 29.8888 106.92 30.3588 106.92 30.9632C106.987 32.642 106.517 34.2537 106.047 35.7982C105.913 36.2011 105.779 36.604 105.644 37.0741C106.786 36.9398 107.928 36.8727 109.069 36.7384C110.614 36.5369 111.688 36.8727 112.36 38.0814C111.554 39.1559 110.412 39.6931 109.136 40.096C108.196 40.4318 107.256 40.7675 106.249 41.1033C107.592 42.3792 108.801 43.5879 110.144 44.7295C111.151 45.6025 111.487 47.147 110.748 48.2215C108.666 48.4229 107.726 46.8113 106.383 45.804C105.376 45.0653 104.503 44.1252 103.563 43.2522C103.227 44.1252 103.025 44.8638 102.69 45.6025C102.018 47.0799 101.817 48.6244 101.548 50.2361C101.481 50.7733 101.212 51.3105 100.944 51.7806C100.742 52.1163 100.339 52.5864 100.138 52.5193C99.7349 52.4521 99.332 52.0492 99.0634 51.7134C97.9218 50.3032 98.1904 48.6915 98.5262 47.0799C98.7276 46.1397 98.8619 45.1996 99.0634 44.1252C98.7948 44.1923 98.6605 44.2595 98.5262 44.3266C96.3773 45.0653 94.2955 45.8711 92.1467 46.6098C91.6094 46.8113 91.2065 46.7441 91.2065 46.0054C91.2065 45.6025 91.0722 45.1996 91.0051 44.7967C90.9379 43.5879 91.5423 42.7821 92.6167 42.2449C94.497 41.3719 96.3773 40.3646 98.459 39.223Z" fill="black"/>
    </g>
    <defs>
        <clipPath id="clip0_2001_1194">
            <rect width="375" height="530" fill="white"/>
        </clipPath>
    </defs>
</svg>
