<svg width="566" height="80" viewBox="0 0 566 80" fill="none" xmlns="http://www.w3.org/2000/svg">
<path d="M0.883466 7.71714C3.84337 21.0947 11.6032 48.627 14.5021 58.677C15.161 60.955 17.2656 62.6034 19.8383 62.6667C31.7678 63.1601 51.5796 62.9827 66.1598 63.2752C127.477 64.7186 188.717 63.4991 249.994 63.6775C326.574 63.8336 403.053 65.1847 479.319 72.318C501.649 74.3979 523.976 76.6108 546.225 79.0879C552.287 79.7693 556.388 78.7394 558.108 72.7946C561.708 60.1773 564.241 47.3341 565.56 34.3944C566.12 29.0863 563.862 24.9728 557.084 24.3402C552.304 23.8899 547.614 22.71 542.91 22.062C474.557 13.0613 405.878 8.5761 336.993 6.61377C272.752 4.83232 52.5337 1.00615 7.57492 0.231693C3.28547 0.192592 0.0510284 3.77175 0.883466 7.71714Z" fill="#91E078"/>
</svg>
