<svg class="hidden lg:block absolute -top-5 right-full -ml-16 fill-gray-800" width="78" height="112" xmlns="http://www.w3.org/2000/svg" aria-hidden="true"><path d="M29.215 63.521a36 36 0 0 1-2.58-1.477c-1.506-.943-2.856-2.13-4.361-3.058-1.257-.79-2.452-1.688-3.539-2.84-.542-.584-1.066-1.207-1.521-2.007a7.4 7.4 0 0 1-.605-1.365 7 7 0 0 1-.199-.916c-.019-.346-.056-.699 0-1.039.066-.792.601-1.394 1.15-1.662.579-.263 1.146-.229 1.562-.02.829.398 1.119 1.19 1.022 1.387-.185.336-.259.555-.274.838-.028.236.096.79.364 1.3.414.806 1.063 1.614 1.815 2.297 1.709 1.55 3.698 2.854 5.696 4.077.569.344 1.084.768 1.66 1.092.79.443 1.575.872 2.311 1.13.774.297 1.572.52 2.2.55l.012-.077c.316.042.582.005.524-.004a.06.06 0 0 0 .012-.052.04.04 0 0 0-.023-.026 4 4 0 0 0-.147-.712c-.247-.792-.793-1.67-1.404-2.46a18.6 18.6 0 0 0-2.126-2.259c-.521-.482-.737-1.115-.415-1.704.095-.17.23-.322.352-.48.53-.69 1.034-.77 2.1-.088.291.176.522.424.783.633 1.152 1.006 2.029 2.219 2.793 3.51.486.84.926 1.73 1.125 2.786.059.26.076.535.09.828.002.322-.03.644-.107.958-.152.623-.501 1.204-1.018 1.595-.334.265-.735.436-1.15.555a4.8 4.8 0 0 1-1.205.137 8 8 0 0 1-2.021-.305 16 16 0 0 1-1.822-.631l.124.092c.276.272.548.52.751.847.534.665.824 1.502.962 2.488.091.961-.233 1.909-.89 2.54-.189.232-.447.372-.711.508-.253.161-.544.219-.838.285a2.5 2.5 0 0 1-.843.087c-.266-.009-.545 0-.802-.018a12 12 0 0 1-2.71-.743 35 35 0 0 1-3.15-1.533c-1.642-.9-3.246-1.907-4.75-3.086-1.374-1.077-2.517-2.442-3.798-3.66-1.059-1.051-2.018-2.252-2.658-3.824-.308-.792-.567-1.67-.523-2.81.058-.592.15-1.24.594-1.955.423-.708 1.217-1.305 1.994-1.522.898-.257 1.528.054 1.932.399.38.38.562.845.6 1.292.086.883-.273 1.622-.588 1.62-.528-.025-.938.015-.945.038-.015.005-.035-.048-.1.032a.9.9 0 0 0-.142.463c-.057.687.217 1.625.69 2.41 1.075 1.81 2.704 3.339 4.418 4.678.484.384.928.824 1.439 1.185 1.405.98 2.907 1.826 4.453 2.582l.04-.068c.387.216.764.404 1.122.554.362.153.733.36 1.079.447.345.104.714.267 1.011.293l.456.097.254.01c.14.008.039.012.089.022.018.007.057.01.1-.024.013-.027.054-.036.034-.13-.055-.13-.053-.291-.146-.435a1.7 1.7 0 0 0-.245-.466c-.083-.175-.22-.305-.347-.467-.344-.396-.577-1.013-.329-1.631.076-.177.195-.339.303-.504.267-.408.58-.633 1.016-.584m22.247-17.16-.078.023c-.294-.857-.784-1.301-1.464-1.552-.899-.296-2.177-.468-3.422-.52-2.522-.117-5.16.03-7.687.388a27 27 0 0 0-2.49.457c-.79.179-1.591.424-2.09.673-.42.163-1.395.922-1.477 1.025-.072.052-.087.054-.087.118.022.035-.038.015.132.14.196.132.556.327.88.48.689.32 1.466.603 2.258.862 1.595.518 3.259.959 4.923 1.428 1.127.316 2.006.679 2.557 1.076.567.4.752.84.437 1.054-.17.14-.41.254-.605.402-.83.632-1.77.68-4.93-.001-.85-.19-1.668-.431-2.513-.675a26 26 0 0 1-2.873-.991 12 12 0 0 1-1.438-.71c-.466-.253-1.092-.708-1.544-1.258-.438-.546-.722-1.235-.636-1.934.06-.702.475-1.31.897-1.85.955-.985 1.632-1.425 2.708-1.991 2.592-1.103 5.116-1.379 7.697-1.688 2.577-.223 5.16-.35 7.806-.03.872.093 1.764.283 2.684.58.482.213.975.424 1.366.78l.614.498.483.623c1.242 1.743 1.38 3.743 1.373 5.492-.062 2.89-.61 5.606-.94 8.243-.155 1.304-.298 2.623-.197 3.77l.128.794.254.956c.167.645.344 1.285.546 1.915.697 2.305 1.512 4.582 2.518 6.773a45 45 0 0 0 3.544 6.242c4.536 6.505 9.654 12.591 14.705 18.761 2.868 3.456 2.576 7.816.825 6.09-2.81-2.772-5.19-5.944-7.602-9.068a721 721 0 0 1-5.638-7.382c-4.2-5.561-8.234-11.515-10.639-18.328-.359-.955-.629-1.933-.905-2.908l-.376-1.471-.188-.735c-.062-.25-.107-.594-.159-.886-.352-3.262.32-5.883.631-8.547.355-2.58.624-5.285.012-7.118M24.045 9.473l.08-.002c.398 3.917 1.224 7.883 2.15 11.769 1.29 5.212 2.746 10.434 4.599 14.95.632 1.483.835 2.426.209 2.723-.188.077-.434.082-.662.109-.974.11-1.783-.48-2.87-2.75-.294-.612-.509-1.23-.743-1.847-1.058-2.814-1.76-5.655-2.544-8.521-.998-3.69-1.942-7.436-2.615-11.237-.434-2.512-.818-5.038-.922-7.658l-.014-.441V6.03c.016-.436.019-.882.069-1.309.08-.862.257-1.674.562-2.315.31-.637.697-1.17 1.387-1.446.722-.259 1.458-.032 1.96.292.91.524 1.718 1.837 2.434 3.138l.72 1.393.61 1.268c1.598 3.437 2.819 7.039 4.336 10.374 2.525 5.582 4.615 11.261 6.473 17.018 1.047 3.256-1.155 6.421-1.922 4.737-1.237-2.695-1.952-5.575-2.837-8.388-.687-2.19-1.416-4.4-2.24-6.56-1.864-4.86-3.835-9.695-5.976-14.382L25.4 7.863q-.218-.499-.45-.98l-.236-.484a5 5 0 0 0-.174-.324c-.116-.176-.227-.339-.351-.447-.09-.107-.3-.107-.356.077a1.1 1.1 0 0 0-.043.444l.023.18.038.918c.04.733.108 1.478.193 2.226ZM7.368 24.903l.069-.039c1.9 2.952 4.021 5.806 6.151 8.621a700 700 0 0 0 8.555 10.962c.916 1.129 1.219 1.949.715 2.405-.156.125-.375.2-.577.292-.882.397-1.663.084-3.152-1.49-.401-.426-.747-.875-1.113-1.317-1.666-2.006-3.137-4.097-4.73-6.148-2.05-2.64-4.15-5.292-6.103-8.043-1.287-1.818-2.56-3.654-3.738-5.575a50 50 0 0 1-1.387-2.386l-.344-.64-.45-.966c-.334-.652-.527-1.288-.768-1.937-.369-1.26-.476-2.356-.253-3.268.112-.44.332-.907.83-1.196.491-.249.882-.19 1.325-.136.77.112 1.727.576 2.754 1.422.505.357 1.011.867 1.517 1.3l.742.704.451.44c1.19 1.175 2.34 2.348 3.528 3.44 3.968 3.648 7.524 7.592 11.037 11.44.99 1.08 1.286 2.475 1.224 3.517-.061 1.04-.514 1.738-1.198 1.235-2.156-1.615-3.732-3.722-5.426-5.693-1.312-1.538-2.644-3.088-4.041-4.56a208 208 0 0 0-4.78-4.894c-.81-.793-1.622-1.582-2.447-2.339l-.309-.282-.15-.135-.05-.037-.19-.137a4 4 0 0 0-.336-.214c-.116-.065-.235-.163-.382-.243-.07-.038-.157-.077-.23-.043-.072.039-.074.138-.07.226.033.253.132.476.23.658l.146.252.071.106.037.05.136.248c.811 1.487 1.74 2.956 2.706 4.4m46.52 74.922.066-.044 2.92 3.89c1.288 1.74 2.52 3.504 3.419 5.307.3.583.192 1.246-.314 1.663-.151.121-.327.216-.494.322-.717.462-1.153.372-1.784-.419-.166-.214-.293-.451-.445-.672-.674-1.01-1.224-2.065-1.918-3.034-.893-1.245-1.878-2.437-2.81-3.662l-1.862-2.415a175 175 0 0 1-2.967-3.967c-.877-1.22-1.584-2.58-2.587-3.684-1.675-1.85-3.06-3.871-4.223-6.074-.667-1.287 1.645-3.5 2.172-2.946.829.86 1.197 1.986 1.731 3.034.411.816.862 1.627 1.39 2.384 1.199 1.706 2.479 3.357 3.744 5.015.357.47.627.998.984 1.47a154 154 0 0 0 2.978 3.832"/></svg>