<svg width="726" height="420" viewBox="0 0 726 420" fill="none" xmlns="http://www.w3.org/2000/svg"><path d="M510.115 228.326c3.268 12.197-2.593 26.001-14.711 29.248l-128.712 34.489c-8.14 2.181-15.848-4.972-15.241-13.426.346-4.82 3.435-9.06 7.847-10.964 43.566-18.807 67.861-67.444 55.135-114.936-13.976-52.161-67.317-83.19-119.139-69.304-16.359 4.383-30.611 12.718-42.016 23.714-7.604 7.33-18.099 11.161-28.507 9.387-15.619-2.663-28.142-17.011-30.565-32.755a100 100 0 0 0-2.235-10.62c-13.977-52.162-67.317-83.19-119.14-69.304C21.01 17.74-9.67 71.282 4.305 123.443c7.266 27.116 25.17 48.52 47.967 60.873 4.323 2.343 7.72 6.203 8.997 10.969 1.004 3.746.613 7.711-.907 11.268-13.004 30.429-16.278 65.348-7.025 99.879 21.838 81.502 105.183 129.984 186.156 108.287 17.179-4.603 32.872-11.996 46.727-21.565 46.173-31.892 86.627-77.434 140.791-91.947 65.385-17.52 139.722 18.359 206.521 7.376a110 110 0 0 0 10.615-2.29c58.3-15.622 92.815-75.856 77.091-134.537-15.723-58.682-75.731-93.589-134.032-77.967-58.3 15.621-92.815 75.856-77.091 134.537" fill="#0000000a"/></svg>