<svg width="1400" height="500" viewBox="0 0 1400 500" fill="none" xmlns="http://www.w3.org/2000/svg"><g clip-path="url(#a)"><path fill="#000" d="M0 0h1400v500H0z"/><path d="M1428-25H-50v305c36.833-53.667 126.5-161.8 190.5-165 80-4 180.5 213.5 237 234.5s93-21 145.5-40.5 121-103 200.5-85.5 134.457 3.892 176 29C945 280 1035 323 1054.5 377s82.5 15.5 168 17.5c68.4 1.6 165.5-113.333 205.5-171z" fill="#fffaf3" stroke="#ffffff00"/><path d="M-40 303c88-125 142.953-173 189.999-173C281.5 130 279 331.5 418.5 341.5c177.521 12.725 205.889-142.541 364-129.5 116.509 9.609 237 196 366.5 196 76 0 134 7.5 285-203" stroke="#c81d25" stroke-width="64" stroke-miterlimit="10"/></g></svg>