<svg
          xmlns="http://www.w3.org/2000/svg"
          width="100"
          height="100"
          viewBox="0 0 100 100"
          fill='#71717A'
        >
          <path d="M18.152 37.305c2.189.512 3.832.435 6-.109 1.787-.436 3.413-.614 5.056.363 1.724 1.193 2.563 2.985 3.409 4.836l.355.758q.349.741.695 1.484c.409.871.835 1.733 1.269 2.592l.194.385.417.824a89 89 0 0 0 2.246-4.7c2.428-5.452 2.428-5.452 4.785-6.629 1.59-.511 3.235-.206 4.81.195 2.085.521 3.589.412 5.659-.109 1.746-.426 3.537-.614 5.156.305 2.123 1.316 3.052 4.114 4.041 6.287l.328.714q.454.991.904 1.984l.251.546.217.477.186.407c.128.327.128.327.128.718h.391l.147-.481c.288-.818.64-1.59 1.009-2.374l.226-.483.475-1.008q.36-.764.715-1.53l.464-.983.211-.456c.782-1.639 1.851-3.331 3.503-4.171 1.656-.536 3.251-.255 4.895.159 2.124.53 3.668.39 5.785-.109 1.738-.398 3.393-.614 5.027.247 1.607 1.031 2.278 2.52 3.064 4.197a164 164 0 0 0 .92 1.905 478 478 0 0 1 3.696 7.736l.322.689.298.642.26.559c.496 1.157.913 2.237.48 3.485-.458.998-1.008 1.633-2.007 2.132-1.357.167-2.538.15-3.653-.695-.943-1.002-1.638-2.2-2.339-3.378-.332-.54-.687-1.064-1.039-1.591-.063 2.606.127 5.133.427 7.721l.131 1.18q.171 1.536.347 3.072.28 2.465.555 4.932.096.855.195 1.709l.119 1.055.055.471c.366 3.318.366 3.318-.657 4.665-1.363 1.057-2.613 1.148-4.297.977-1.229-.41-1.906-1.014-2.539-2.148-.199-.597-.326-1.203-.452-1.819l-.118-.546a295 295 0 0 1-.405-1.933l-.453-2.152a539 539 0 0 1-.461-2.202l-.17-.813-.152-.732c-.077-.524-.077-.524-.328-.741l-.075.372q-.39 1.93-.789 3.859l-.293 1.438q-.21 1.038-.426 2.074l-.127.643c-.663 3.14-.663 3.14-1.86 4.069-1.216.722-2.469.837-3.852.631-1.05-.321-1.744-.823-2.344-1.758-.597-1.792-.089-3.93.13-5.772q.09-.764.177-1.528.248-2.171.504-4.342c.481-4.075.922-8.075.751-12.186l-.25.413q-.341.564-.684 1.127a160 160 0 0 0-.708 1.183c-.821 1.32-1.725 2.411-3.266 2.87-1.477.29-2.81.116-4.077-.709-1.561-1.276-2.501-3.369-3.516-5.078-.125 2.821.072 5.566.385 8.367l.059.525q.182 1.62.372 3.241.254 2.18.5 4.36.086.75.175 1.499c.171 1.474.309 2.946.341 4.43l.017.737c-.107.798-.374 1.215-.871 1.84-1.191.898-2.668.973-4.102.781-1.144-.336-1.868-.97-2.539-1.953-.237-.663-.237-.663-.4-1.396l-.093-.406q-.149-.66-.288-1.323l-.207-.933a238 238 0 0 1-.52-2.42q-.158-.749-.319-1.497l-.203-.963-.096-.447c-.15-.724-.256-1.399-.218-2.139h-.391l-.028.353a30 30 0 0 1-.586 3.708l-.125.586q-.13.609-.262 1.217-.2.927-.394 1.855l-.257 1.188-.115.556c-.291 1.315-.665 2.629-1.859 3.403l-.342.23c-1.006.565-2.143.5-3.259.38-.936-.303-1.698-.69-2.356-1.428-.451-1.291-.384-2.515-.221-3.846l.058-.511.126-1.092q.102-.87.199-1.742a1389 1389 0 0 1 .496-4.332q.212-1.827.417-3.655.097-.846.197-1.692c.286-2.502.356-4.966.303-7.483l-.205.344-.269.452-.267.448c-2.366 3.963-2.366 3.963-4.32 4.527-1.299.279-2.559.139-3.729-.498-.833-.573-1.336-1.248-1.855-2.1l-.23-.366a135 135 0 0 1-.646-1.049 101 101 0 0 0-.977-1.563h-.195c-.066 2.534.137 4.991.427 7.507l.131 1.18.347 3.077q.28 2.469.555 4.938.096.856.195 1.712l.119 1.057.055.472c.362 3.279.362 3.279-.462 4.471-1.119 1.06-2.179 1.274-3.683 1.246a5 5 0 0 1-2.567-1.051c-.738-.941-.988-1.791-1.221-2.935l-.111-.513q-.173-.809-.34-1.618l-.229-1.067a375 375 0 0 1-1.223-5.976c-.415 1.113-.626 2.255-.857 3.417l-.274 1.332q-.215 1.044-.423 2.089a220 220 0 0 1-.414 2.023l-.12.628c-.27 1.268-.631 2.149-1.622 3.011-1.205.762-2.512.741-3.906.586-1.054-.309-1.746-.825-2.344-1.758-.456-1.368-.182-2.943-.016-4.354l.058-.515.125-1.096q.1-.873.197-1.746.277-2.48.56-4.961a1028 1028 0 0 0 .342-3.046q.064-.575.131-1.149c.276-2.398.418-4.743.36-7.156l-.289.456a172 172 0 0 1-.96 1.493 111 111 0 0 0-.628.986c-.774 1.185-1.453 2.206-2.811 2.729-1.079.212-2.036.148-3.027-.329-1.011-.935-1.401-1.531-1.528-2.88.008-1.15.531-2.075 1.028-3.089l.311-.653.688-1.435c.413-.857.817-1.718 1.221-2.579 2.249-4.797 2.249-4.797 3.317-6.963l.189-.388c.778-1.563 1.69-2.619 3.27-3.364 1.53-.454 2.964-.167 4.48.195m7.408 2.343-.575.135-1.177.29c-2.021.475-3.767.459-5.778-.034-1.886-.494-1.886-.494-3.778-.244-.802.682-1.246 1.499-1.699 2.435l-.204.416a272 272 0 0 0-2.155 4.534l-.815 1.743-.202.431a138 138 0 0 1-1.269 2.627l-.308.624q-.279.565-.566 1.127l-.247.501-.216.427c-.158.525-.073.872.07 1.394l.781.195c1.029-1.201 1.841-2.506 2.651-3.858a76 76 0 0 1 2.484-3.825l.287-.422.256-.372c.214-.308.214-.308.181-.702.785-.136 1.383-.229 2.148 0 .313 8.508-.445 16.766-1.49 25.202l-.055.448q-.072.593-.146 1.185a16 16 0 0 0-.067 2.071c.366.366.879.23 1.366.24.454-.022.454-.022.978-.436.181-.502.181-.502.295-1.11l.154-.721.08-.391q.125-.612.257-1.224c.316-1.491.619-2.984.919-4.478q.231-1.146.465-2.29.169-.839.332-1.679l.212-1.043.091-.481c.191-.92.422-1.52 1.103-2.208.611-.306 1.291-.331 1.953-.195.743.6.935 1.117 1.146 2.036l.094.402a106 106 0 0 1 .322 1.47l.132.617c.417 1.951.821 3.904 1.223 5.858q.231 1.119.464 2.237l.142.693.135.645.116.564c.133.527.289 1.004.521 1.496.635.318 1.248.218 1.953.195l.195-.195c-.009-.463-.03-.918-.063-1.38l-.029-.426a77 77 0 0 0-.414-4.023q-.135-1.107-.263-2.216l-.055-.469c-.795-6.836-1.158-13.506-.935-20.393 1.663-.252 1.663-.252 2.148 0l.163.418c.278.68.668 1.252 1.083 1.853a122 122 0 0 1 2.622 4.055c.891 1.639.891 1.639 2.188 2.854a4 4 0 0 0 1.758-.195c1.164-.953 1.883-2.58 2.653-3.858a96 96 0 0 1 2.134-3.369l.298-.457.281-.422.247-.372c.248-.311.248-.311.834-.702.598.037.598.037 1.172.195.473.71.474 1.26.497 2.084l.014.489q.019.838.025 1.675l.007.592c.035 5.723-.723 11.417-1.374 17.094q-.106.923-.21 1.847-.131 1.151-.269 2.301l-.119 1.033-.06.476c-.041.372-.061.746-.075 1.12.506.506.876.445 1.568.462.52-.096.646-.239.971-.657.193-.616.193-.616.326-1.339l.084-.41q.09-.44.176-.881.138-.699.281-1.396a671 671 0 0 0 .496-2.464 1021 1021 0 0 1 .794-3.937q.139-.686.274-1.373l.172-.847.148-.744c.213-.804.437-1.595 1.118-2.111.769-.22 1.36-.225 2.099.092.644.502.706.902.89 1.691l.095.393q.142.608.273 1.217l.161.726q.232 1.093.451 2.189l.163.798q.343 1.67.679 3.34.208 1.032.421 2.062.118.579.232 1.158l.146.706.126.621c.169.532.307.762.747 1.096.556.112.986.055 1.563 0 .51-.764.368-1.298.256-2.165l-.058-.49q-.063-.53-.128-1.059-.14-1.143-.271-2.288l-.215-1.835c-1.354-11.57-1.354-11.57-1.318-16.882l.001-.6q.004-.811.025-1.622l.007-.46c.029-.651.107-1.065.465-1.615.455-.282.455-.282 1.048-.286.687.236.854.428 1.238 1.035l.347.536.361.581.379.587c.533.825 1.057 1.654 1.582 2.484 1.305 2.31 1.305 2.31 3.117 4.156.923.1 1.411-.029 2.148-.586.372-.49.671-1.017.977-1.55q.28-.475.562-.948l.298-.502a87 87 0 0 1 1.667-2.615l.322-.493.597-.908q.251-.383.492-.771c.493-.785.493-.785 1.141-1.014.586.012.586.012 1.004.191.59.661.493 1.379.501 2.237l.011.585q.012.983.009 1.967l.003.688c.004 6.598-.857 13.157-1.651 19.697l-.055.457q-.05.417-.102.833a16 16 0 0 0-.112 2.459c.366.366.879.23 1.366.24.454-.022.454-.022.978-.436a13 13 0 0 0 .341-1.373l.089-.429q.095-.461.187-.922a187 187 0 0 1 .299-1.461 820 820 0 0 0 .741-3.629q.31-1.532.629-3.063.147-.718.289-1.438l.184-.885.077-.402c.183-.854.468-1.393 1.07-2.023.605-.303 1.09-.252 1.758-.195.624.387.924.651 1.201 1.337l.153.693.091.401q.162.736.313 1.476l.132.626c.418 1.99.822 3.982 1.224 5.975l.464 2.283.142.709.135.657.116.576c.124.479.264.862.521 1.284.583.292 1.115.218 1.758.195l.391-.195a84 84 0 0 0-.505-5.607c-.958-7.806-1.502-15.429-1.253-23.299 1.663-.252 1.663-.252 2.148 0q.197.487.391.977a23 23 0 0 0 .604.961l.364.554.388.585.795 1.208.398.604q.949 1.45 1.88 2.914c.321.499.619.956 1.04 1.378.508-.063.508-.063.977-.195a7.1 7.1 0 0 0-.766-2.633l-.175-.357-.376-.756q-.504-1.009-.998-2.022l-.205-.417a203 203 0 0 1-2.286-4.862c-1.174-2.999-1.174-2.999-3.201-5.359-1.248-.257-2.415.088-3.609.443-2.512.732-5.003.25-7.481-.387-.602-.154-1.108-.266-1.727-.178-1.758 1.203-2.509 3.158-3.357 5.029l-.412.892c-.609 1.318-1.206 2.64-1.804 3.963l-.27.598a163 163 0 0 0-.479 1.075l-.213.477-.178.405a6 6 0 0 1-.784 1.156c-.442.076-.442.076-.915.049l-.479-.021-.363-.028-.155-.402a41 41 0 0 0-.875-1.951l-.189-.403q-.837-1.776-1.678-3.55a238 238 0 0 1-1.143-2.449q-.382-.83-.769-1.657l-.272-.602c-.507-1.081-.932-1.813-1.95-2.462-1.154-.321-2.439.143-3.558.443-2.488.657-5.149.366-7.574-.443-.406-.06-.406-.06-.842-.073l-.437-.029c-.83.177-1.426.74-1.885 1.434-.224.417-.43.839-.63 1.269l-.23.477q-.365.761-.724 1.524l-.499 1.043c-1.867 3.874-1.867 3.874-3.541 7.832a18 18 0 0 1-.83.073l-.467.041c-.463-.115-.463-.115-.873-.615a21 21 0 0 1-1.007-2.112 50 50 0 0 0-1.477-3.174c-.749-1.463-1.425-2.956-2.087-4.461-.794-1.874-.794-1.874-2.246-3.23-.735-.203-1.243-.183-1.979-.001m57.981-17.391c1.566 1.325 2.576 2.828 2.787 4.893.132 2.731-.005 4.809-1.758 7.031-1.538 1.513-3.481 2.169-5.603 2.197-2.152-.025-3.696-.585-5.335-2.002-1.958-2.098-2.066-4.45-1.979-7.183.118-1.986 1.112-3.339 2.504-4.682 2.529-2.126 6.73-2.148 9.383-.254m-7.943 2.598c-1.32 1.76-1.378 3.282-1.184 5.42.183 1.196.82 1.881 1.713 2.647 1.271.823 2.683.836 4.146.673 1.308-.385 2.143-1.047 2.918-2.155.719-1.335.547-3.334.326-4.794-.339-1.102-1.137-1.811-2.072-2.425-1.997-.966-4.082-.718-5.847.635m-50.065-2.598c1.566 1.325 2.578 2.829 2.787 4.893.164 2.56.028 4.665-1.561 6.786-1.275 1.434-3.121 2.283-5.018 2.462-2.576.058-4.377-.467-6.31-2.218-1.887-2.263-1.958-4.935-1.711-7.758.306-1.752 1.462-3.086 2.786-4.209 2.591-1.789 6.469-1.784 9.029.043m-7.943 2.598c-.975 1.299-1.255 2.177-1.27 3.772l-.006.426c.022 1.383.449 2.581 1.459 3.565 1.41.988 2.796 1.234 4.492.977 1.287-.413 2.182-1.027 2.93-2.148.434-.85.459-1.663.452-2.6l-.003-.449c-.028-1.346-.204-2.272-1.084-3.347-.866-.709-1.74-1.302-2.881-1.416l-.61-.061c-1.286.104-2.451.494-3.479 1.282m37.463-2.258c1.329 1.258 2.162 2.974 2.238 4.793.045 2.881-.026 4.984-2.116 7.15-.747.646-1.524 1.046-2.441 1.399l-.635.256c-2.249.412-4.377.233-6.335-.977-1.613-1.163-2.479-2.437-2.991-4.358-.101-.789-.11-1.561-.098-2.356l-.009-.599c.01-1.916.528-3.485 1.853-4.893 2.956-2.614 7.373-2.857 10.534-.416m-8.96 2.795c-.691 1.052-.674 2.007-.659 3.223l-.007.547c.006 1.315.238 2.148 1.081 3.188 1.271 1.05 2.46 1.37 4.103 1.308 1.564-.175 2.45-.837 3.441-2.04.585-.878.489-1.83.501-2.844l.017-.517c.014-1.385-.269-2.429-1.229-3.455-2.305-1.624-5.327-1.693-7.247.591" />
        </svg>