<svg xmlns="http://www.w3.org/2000/svg" width="512" height="512" fill='red'><path d="M372.938 126.5A360 360 0 0 1 377 130l2.152 1.652C399.145 147.71 408.234 175.407 411 200c.28 4.754.335 9.488.313 14.25l-.018 3.857c-.123 9.6-.757 18.608-3.295 27.893l-.602 2.203C401.07 270.462 388.959 288.486 373 305l-2.086 2.207c-5.242 5.424-11.012 10.11-16.914 14.793l-3.184 2.559c-7.994 6.388-16.228 12.404-24.543 18.367-8.96 6.43-17.748 13.073-26.273 20.074l-1.602 1.292c-7.564 6.12-14.291 12.404-20.315 20.076-3.67 4.57-7.01 7.153-12.864 8.066-5.946.008-9.739-.153-14.219-4.434-2.825-3.559-5.406-7.27-8-11-11.944-17.649-11.944-17.649-28-31v-2l-1.59-.672c-3.297-1.817-6.079-4.193-8.972-6.578-5.834-4.745-11.795-9.265-17.875-13.687-32.712-23.887-62.393-50.578-69.813-92.313-4.263-29.678-.218-57.869 17.25-82.75 12.376-16.007 28.908-26.023 49-29 18.925-1.797 36.247 4.33 51.188 15.75 8.637 7.327 17.697 15.647 23.812 25.25v2h2l.82-2.684c5.903-16.594 22.762-32.433 38.18-40.316 24.973-11.244 51.904-9.265 73.938 7.5M307 153l-1.89 1.457c-15.216 12.399-22.068 32.172-26.903 50.559-1.492 5.507-2.977 9.049-7.207 12.984-4.802 2.51-9.852 2.493-15 1-5.278-2.775-7.505-6.015-9.875-11.312a2042 2042 0 0 0-2.05-4.31c-.343-.727-.686-1.455-1.038-2.206-9.668-20.259-21.69-39.06-43.037-48.172-8-2.533-16.693-1.533-24.336 1.617-14.043 7.29-20.986 19.827-25.664 34.383-4.943 20.765-1.766 44.214 9.063 62.688 4.705 7.634 10.566 14.044 16.937 20.312l2.543 2.54c6.293 5.99 13.173 11.044 20.194 16.14 6.395 4.646 12.589 9.488 18.724 14.468a288 288 0 0 0 7.016 5.516C239.166 321.871 252.51 334.511 264 349c3.79-1.611 6.629-4.126 9.688-6.812 11.067-9.531 22.88-18.121 34.562-26.875q3.756-2.816 7.511-5.634 2.071-1.553 4.146-3.104c27.192-20.362 50.125-41.895 57.679-76.24 2.885-23.239.019-46.883-13.524-66.398-7.29-9.312-16.99-17.19-29.062-18.937-10.436-.992-19.671 1.522-28 8M92.313 323.188C95.258 325.174 97 327.073 99 330l1.25 1.813c1.645 4.798 1.359 9.433-.562 14.062C96.465 351.712 91.012 355.75 86 360q-2.034 1.779-4.062 3.563l-1.91 1.652a240 240 0 0 0-4.462 4.039c-13.367 12.35-13.367 12.35-22.398 12.879-4.927-.302-8.254-2.381-11.98-5.445-3.411-4.19-4.427-7.724-4.188-13.063 1.338-8.89 8.097-13.735 14.793-18.992 4.515-3.618 8.65-7.663 12.816-11.673 8.165-7.774 16.068-13.944 27.704-9.772M474 88c4.39 1.96 7.098 4.54 9.297 8.883 1.677 5.05 1.961 10.39-.297 15.285-6.052 8.614-15.279 15.14-23.387 21.687-3.035 2.491-5.96 5.087-8.86 7.735-4.017 3.23-7.317 3.856-12.374 3.722-5.482-.72-9.23-2.986-12.817-7.125-2.547-5.197-3.363-10.291-1.73-15.957 4.24-8.096 13.448-14.449 20.461-20.027 3.611-2.939 7.014-6.082 10.418-9.258C460.943 87.65 465.978 87.042 474 88m-28.25 250.25q1.93.892 3.863 1.777c17.439 8.05 17.439 8.05 21.387 13.973 1.722 5.167 1.656 10.106-.125 15.25-2.85 4.18-5.98 7.119-10.875 8.75-6.14.415-10.308-.496-15.875-3l-2.18-.945a627 627 0 0 1-4.575-2.011 420 420 0 0 0-7.3-3.114l-4.82-2.055-2.273-.945c-6.193-2.702-11.28-6.54-13.977-12.93-.996-6.327-.262-11.156 3.531-16.371 9.16-10.159 23.119-3.209 33.219 1.621M56.875 119.375c4.663 2.613 8.385 6.319 12.25 9.969 2.804 2.59 5.698 4.972 8.688 7.344 11.595 9.442 11.595 9.442 13.066 17.265.306 5.166-.911 8.837-4.129 12.86-4.685 3.726-8.53 5.826-14.687 5.523-7.296-1.188-12.184-6.006-17.41-10.895-2.724-2.506-5.531-4.857-8.403-7.191l-2.766-2.262a118 118 0 0 0-4.406-3.383C34.827 145.46 32.954 142.118 32 137c-.244-5.99.96-10.428 5-15 6.248-4.655 12.56-5.766 19.875-2.625M445.84 231.434l2.2-.02q2.287-.01 4.575.01c2.314.013 4.624-.02 6.938-.059 13.322-.07 13.322-.07 19.053 4.238 3.68 3.689 5.226 7.07 5.894 12.334-.266 4.575-1.819 8.365-4.5 12.063-7.024 5.59-13.533 5.217-22.086 5.24-2.143.01-4.284.04-6.426.072q-2.064.01-4.129.016l-3.766.028c-4.692-.465-8.72-1.705-12.335-4.891-4.463-6.017-4.978-10.015-4.258-17.465 1.512-4.993 4.5-7.706 9.042-10.18 3.202-1.341 6.384-1.411 9.798-1.386m-368.465 6.129c4.365 4.053 6.797 8.544 7.063 14.562-.637 5.64-2.17 8.578-6.126 12.625-5.793 4.457-13.83 4.69-20.874 5.375l-2.46.262C40.879 271.82 40.879 271.82 34 268c-4.196-4.055-6.16-7.375-6.312-13.187.072-5.574.833-8.441 4.312-12.813 6.075-4.379 11.973-5.043 19.313-5.812l3.263-.405c7.78-.88 15.55-1.577 22.799 1.78"/></svg>