<svg width="750" height="244" viewBox="0 0 750 244" fill="none" xmlns="http://www.w3.org/2000/svg">
<path d="M357 73.9C357 73.6 356.9 72.9 356.4 72.3C355.9 71.7 355.2 71.4 354.3 71.2C339.6 68.4 322.8 69 322.8 69C321.9 69 321.2 69 320.9 69C320.9 70.7 320.8 73.3 320.7 76.4C320.5 83.3 320.3 86.8 320 89.1C319.9 90.1 317.7 105.2 307.3 112.1C306.4 112.7 304.2 114.1 301.1 114.8C296.9 115.7 293.5 114.9 291.6 114.4C281.7 112 277.7 110.1 264 106.7C258.6 105.4 254.2 104.7 251.8 104.3C250.1 104.1 248.7 103.9 247.7 103.8C246 105.3 243.7 107 240.7 108.6C235.9 111.1 231.4 112 228.3 112.4C227.6 112.4 226.9 112.5 226.3 112.5C225.7 112.5 224.9 112.5 224.1 112.3C223.3 112.2 222.6 112 222.1 111.8C221.2 113.5 218.9 117.9 216.4 121.9C215.9 122.7 215 124.1 213.3 124.6C211.9 125.1 210.5 124.7 210.1 124.6C205.4 123.5 200.5 122.3 195.7 122.4C189.6 122.6 183.6 123.8 177.6 125C168.9 126.8 166.1 126.4 164.2 126.4C159 126.4 154.8 125.8 151.9 125.2C150.6 125.9 148.7 127 146.3 128.5C132.9 136.7 124.8 144 120.1 147.5C104 159.7 86.4 168.9 66.3 172.8C64.6 173.1 57.1 173.1 47.7 176C46.2 176.4 45.1 176.9 44.3 177.2C41.6 185.7 39 192.3 37 196.8C35 201.5 32.4 206.9 30.3 215.1C29.7 217.6 29.2 219.8 29 221.2C33.6 222.3 40 223.6 47.6 224.7C53.9 225.6 67.3 227.3 86.4 227C124 226.4 129.2 219 130.3 216.7C130.6 216 132.4 212 132.4 212C132.4 212 131.8 213.1 131.3 214.5C131.1 215 131 215.3 130.9 215.4C127.2 223.8 123.5 231.8 119.3 240.3C118.4 241.8 118 242.5 117.2 243.5C117.1 243.5 116.9 243.4 116.8 243.4C116.6 244 116.3 244.5 116.1 245.1C159.4 245.2 202.7 245.4 246 245.5C246.8 242.3 247.3 239.7 247.5 238C248.4 232 248.6 224.9 248.7 222.6C248.8 220 248.8 218.3 249.4 215.8C249.7 214.6 250.3 212.7 251.9 209.7C254.6 204.7 257.5 201.2 258.5 200.1C262.5 195.4 267.5 189.7 275.7 186.6C278.9 185.4 282 184.9 288.2 184C293.6 183.2 298.1 182.9 301.2 182.8C303.9 182.4 307.5 181.7 311.6 180.5C314.8 179.5 320.3 177.8 326.6 173.9C333.1 169.9 337.2 165.5 338.9 163.6C340.6 161.7 345.6 155.8 350.1 144C352.2 138.4 353.6 130.3 356.4 114.3C356.4 114.3 359.9 94 358.4 80.8C358.3 78.4 357.3 76.5 357 73.9Z" fill="black"/>
<path d="M11.3 189C11.3 189 6.10002 192.3 2.90002 198.3C2.70002 198.7 2.20003 199.6 2.50003 199.9C2.50003 199.9 2.70004 200.1 3.20004 199.9C4.90004 197.8 6.60003 196.2 8.00003 195.1C9.40003 193.9 11 192.6 13.4 191.4C14.6 190.8 15.6 190.5 16.4 190.2C12 194 7.70002 198.2 3.40002 202.7C2.90002 203.2 2.50003 203.7 2.00003 204.2C1.70003 205.1 1.70003 205.9 2.10003 206.1C2.40003 206.3 2.80004 206.2 3.20004 206.2C3.50004 206.2 3.70002 206.1 3.90002 206C6.60002 200.8 9.90002 198.3 11.8 197.1C14.5 195.4 18.3 194 18.5 194.3C18.6 194.4 18.1 194.7 17.8 195C15.1 196.5 13 198 11.6 199.1C10.3 200.1 9.60002 200.9 9.30002 201.2C7.40002 203.2 4.90003 206.4 5.60003 207.2C5.70003 207.3 5.90003 207.4 6.10003 207.4C6.90003 207.6 7.60003 206.7 8.60003 206C9.10003 205.6 9.90003 205 11 204.4C14.4 200.2 17.8 198.2 20 197.3C21.3 196.7 23 196.2 23.1 196.4C23.3 196.7 20.5 198.6 16.7 201.3C16.4 201.5 15.5 202.1 14.5 203.2C14.2 203.5 14 203.8 13.7 204.2C11.8 206.7 10.4 208.5 11 209.4C11 209.5 11.1 209.6 11.3 209.7C12.1 210 13.5 207.9 14.1 207C16.2 204.3 19.4 203.3 21.7 202.6C28.4 200.6 35.2 203.5 35.1 204C35.1 204.1 35 204.2 34.5 204.2C31.2 203.6 28.4 203.6 26.5 203.8C21.8 204.2 16.7 205.9 15.3 207.9C15.1 208.1 14.4 209.2 13.2 210.5C12.8 210.9 12.5 211.2 12.3 211.4C11.5 211.8 10.6 211.8 10 211.3C9.10003 210.7 8.80002 209.5 9.30002 208.4C9.40002 207.7 9.70003 207 10 206.3C8.90003 207.2 7.80004 208.1 6.70004 209C5.90004 209.3 5.00002 209.2 4.40002 208.7C4.00002 208.4 3.70003 207.9 3.60003 207.3C3.20003 207.6 2.20002 207.9 1.40002 207.6C0.500022 207.2 2.19345e-05 205.8 0.400022 204.2C0.800022 203.5 1.20004 202.8 1.70004 202C1.40004 202.1 1.10003 202 1.00003 201.9C0.200028 201.4 0.600016 199.5 0.800016 198.9C1.70002 194.6 8.80002 186.9 15.4 184.8C17.8 184 20.2 183.8 20.2 183.8C21.5 183.7 22.5 183.7 23.9 183.8C26.1 183.9 26.9 184.1 29.1 184.2C30.5 184.3 31.8 184.6 34.1 184.8C36.8 185 38.5 185.3 41.7 185.2C41.3 185.7 41 186.2 40.6 186.7C34.6 186.8 30.3 186.2 26.9 185.9C21.7 185.5 19.8 185.6 18 186C17.3 186.2 16.5 186.4 16.5 186.4C15.5 186.9 13.5 187.6 11.3 189Z" fill="black"/>
<path d="M222.8 129.8C223.3 129.9 223.6 129.5 223.9 129.1C231.1 120.3 240.7 116.9 251.7 116.1C263.2 115.3 274.1 117.4 284.4 122.8C287.2 124.3 289.6 122.6 292 122.1C303.2 119.8 313.4 121.4 322.6 128.6C327.8 132.6 332.2 137.3 336 142.6C337.8 145.2 338.6 149.9 337.7 152.3C335.4 141.3 327.3 135.2 319.2 129.5C310.5 123.4 300.6 123.3 290.2 126.1C294.8 130 299.5 133.5 302.8 138.4C307.3 145 309.9 152.2 310.5 160C311.1 167.2 307.2 172.7 301.6 176.7C296.2 180.5 290.3 180.1 284.6 177.1C276.3 172.7 270.4 165.9 267.4 157C264.9 149.5 264.9 141.9 268.8 134.8C271.3 130.2 275 126.6 280.5 124.7C277.8 122.6 274.6 122 271.8 121.2C261.9 118.6 251.9 118.8 241.9 121.3C235 123.1 230.3 127.6 225.7 132.6C223.8 134.7 222.6 136.9 222.2 139.8C227.9 138.7 233.5 138 239 140C246.2 142.6 252.3 147.1 253.3 154.5C253.9 159 251.4 162.4 249.1 165.8C244.9 171.9 241.1 172.3 233.6 168.6C224.5 164.2 219 156.9 217.8 146.7C217.7 145.5 217.2 145.3 216 145.5C210.5 146.4 205.2 147.7 200 150.1C193.5 153.1 186.6 152.5 179.8 150.4C173.9 148.6 168.1 146.5 162.9 143.1C157.8 139.7 152.2 136.6 149.3 130.7C149.1 130.4 148.9 130.1 149.3 129.5C153.1 131.2 156.2 134 159.4 136.5C168.3 143.5 178.4 147.5 189.5 148.8C193.4 149.3 197.5 148 201.3 146.7C205.9 145 210.9 144.2 215.4 142.1C216.2 141.8 217.3 141.7 217.5 140.9C218.7 137.5 220.1 134.1 221.6 130.8C222 130.6 222.7 130.6 222.8 129.8ZM285.2 174.5C295.1 180.2 304.4 173.6 307.1 164.8C309.1 158.1 306.3 152.3 304.1 146.4C301.4 139.4 296.2 134.1 290.1 129.9C288.7 128.9 287.5 126.9 285.5 127.3C278.8 128.4 273.9 132.4 271.5 138.5C265.8 153.3 273.6 167.4 285.2 174.5ZM247.7 162C251.6 154.8 249.9 149.7 242.8 145.6C236.5 142 230 142.2 223.3 143.9C221.7 144.3 221.3 145 221.4 146.6C222.1 155.4 226.5 161.9 234.2 165.9C241.8 169.9 244.5 168.7 247.7 162Z" fill="#D7D7D7"/>
<path d="M449.5 75.3C448.7 76.7 445.1 79.5 440.4 78.9C437.2 78.5 434.8 76.8 434.4 75.6C434.4 75.5 434.3 75.4 434.4 75.3C434.8 74.6 438.1 76.8 442 76.7C446 76.6 449.3 74.2 449.6 74.8C449.7 75 449.6 75.1 449.5 75.3Z" fill="black"/>
<path d="M439.3 67.6C439 67.6 436.3 67.3 435.6 65.7C435 64.4 436.1 63.2 437.5 61.5C438.3 60.6 438.8 59.9 439 59.7C442.1 56.3 443.3 53 443.6 53.1C443.9 53.3 442.4 58.2 440.2 60.6C439.9 60.9 439.5 61.4 438.7 62.4C437.6 63.8 437.3 64.3 437.4 64.8C437.5 65.2 437.9 65.4 438.4 65.6C438.9 65.9 439.2 65.9 439.7 66.1C440.9 66.4 441.9 66.7 441.9 67C441.9 67.3 440.6 67.7 439.3 67.6Z" fill="black"/>
<path d="M450.7 49.3C451.1 48.1 453.7 47.7 455.7 48.2C455.9 48.3 458.7 49 459.6 51.2C459.7 51.4 460 52.1 459.7 52.3C459.4 52.6 458.7 52.1 457.4 51.5C455.8 50.8 454.8 50.3 453.5 50.2C452 50.1 451 50.6 450.7 50C450.5 49.8 450.6 49.3 450.7 49.3Z" fill="black"/>
<path d="M454.7 48.7C453.3 48.8 452.2 50.9 452.7 52.5C452.9 53.3 453.6 54.3 454.6 54.3C455.9 54.4 457.2 52.9 457.1 51.4C457 50 455.8 48.7 454.7 48.7Z" fill="black"/>
<path d="M433.1 45.7C433.5 44.5 435.8 44.2 437.6 44.6C437.8 44.7 440.3 45.3 441.1 47.4C441.2 47.6 441.4 48.3 441.2 48.5C441 48.8 440.3 48.3 439.2 47.8C437.7 47.1 436.8 46.7 435.7 46.6C434.4 46.5 433.5 47 433.2 46.4C432.9 46.2 433 45.8 433.1 45.7Z" fill="black"/>
<path d="M437 45.2C435.8 45.3 434.7 47.3 435.2 48.8C435.4 49.6 436 50.5 436.9 50.6C438.1 50.7 439.2 49.2 439.2 47.8C439.1 46.4 438 45.2 437 45.2Z" fill="black"/>
<path d="M445.4 39.5C445.8 38.6 443.6 36.1 440.9 35.5C440.4 35.4 438.6 34.9 437 35.9C435.6 36.8 434.7 38.5 435 38.9C435.4 39.4 436.8 37.6 439 37.9C441.2 38.1 442.1 40.3 444.3 40C444.8 39.9 445.3 39.8 445.4 39.5Z" fill="black"/>
<path d="M452.4 38.3C453 36.8 456.4 36.4 458.9 37C459.2 37.1 462.8 37.9 464 40.7C464.1 41 464.5 41.8 464.2 42.1C463.8 42.5 462.9 41.9 461.2 41.2C459.1 40.3 457.7 39.7 456.1 39.6C454.2 39.5 452.9 40 452.4 39.3C452.2 38.9 452.4 38.3 452.4 38.3Z" fill="black"/>
<path d="M704.7 187.9C704.6 185.7 704.5 184.1 704.4 183.2C704.4 183.2 703.4 171.4 698.7 159.8C698.5 159.4 698.2 158.5 697.4 157.7C696.2 156.5 694.6 156.1 694 155.9C692.9 155.6 692 155.6 691.8 155.6C689 155.6 670.6 152.4 658.4 149.1C650.7 147 643.3 144.7 614.8 132.6C596.9 125 579.3 116.7 560.6 111C556.6 109.8 546.6 106.3 533.4 103.4C524.8 101.5 518.6 100.6 515.5 100.2C510.7 99.6 505.4 98.9 498.5 98.7C491.6 98.6 485.6 99 480.6 99.6C477 91.3 478.1 85.2 478.8 82.7C479.8 79 481.6 76.3 484.3 72.2C488.2 66.3 489 66.9 492.6 61.7C492.9 61.2 499.1 52.1 500.6 43.2C501 40.6 501.1 37.8 501.1 37.8C501.1 37.4 501.2 34.4 500.9 31.3C499.9 22.3 495.5 15.6 495.5 15.6C492.2 10.5 488.3 7.69999 487.2 6.89999C480.4 1.99999 472.6 -1.10001 464.6 0.799987C456.3 2.69999 448.2 2.79999 440 2.39999C431.8 1.99999 424.1 8.80001 422.5 14.2C420.3 21.9 422.5 29.2 428.8 33.9C430.1 34.9 432.1 34.5 432.9 33C435 29 438.1 26.8 442.8 25.8C446.9 24.9 451 24.9 455.1 24.9C460.2 24.9 464.7 26.2 468.7 29.7C475.6 35.7 478.5 44.8 475.7 53.3C475.4 54.1 475.3 55.6 475.7 55.8C476.7 56.4 477.7 56.7 479.2 55.9C480.1 55.4 483.4 53.8 485.4 54.7C485.7 54.8 486.3 55.2 486.7 55.9C486.8 58.4 486.6 62.1 485.1 66.1C483.3 71.1 480.5 73.6 479 75.8C476.1 79.8 474.1 86.9 478.1 100.6C477.6 101 476.9 101.7 476.1 102.3C470.4 106.5 464.1 107.1 461.3 107.1C453.9 107.2 448.6 104.1 446.5 102.8C447 99.5 447.4 96.4 447.9 92.9C449.6 92.6 451.9 92 454.7 91.1C458.3 89.9 461.8 88.3 461.6 87.8C461.5 87.6 460.6 87.5 460.1 87.5C460 87.5 459.8 87.5 459.6 87.5C459 87.6 458.4 87.8 457.9 88C457.7 88.1 456 88.6 452.4 89.6C447.8 90.9 442.7 91 440.4 91C438.9 91 435.9 91 433.3 89.6C432.8 89.3 432.5 89.1 432.3 89C430.6 87.7 429.7 85.9 429.2 84.2C426.6 76.2 429.3 63.7 429.3 63.7C431.7 52.5 434.6 48 433.2 39.8C432.9 37.9 432.2 35.4 431.9 35.5C431.4 35.6 432 40.7 431.3 46.8C430.8 51.4 429.9 52.6 428.4 58.6C424 75.4 426.1 82.7 426.8 84.6C427.6 87.1 428.7 89 430.4 90.4C432.6 92.2 435 92.7 437.5 93.1C439.3 93.4 442.2 93.7 445.7 93.2C445.3 96 444.8 98.9 444.4 101.7C434.5 101.5 425.5 103.8 416.6 106.9C409.1 109.5 401.6 112 394 114.1C391.5 114.8 388.3 114.7 385.9 113.7C383.9 112.9 382.4 110.5 381.1 108.6C376.7 102.4 374.5 95.1 371.8 88C369.1 81.1 366.2 74.2 362.8 67.6C362.5 66.9 361.8 64.4 360 64C359.2 63.8 358.3 64.1 357.4 64.4C356.2 64.8 355.3 65.4 354.7 65.8C354.6 65 354.4 63.8 354.2 62.3C353.2 55.2 353.5 52.9 352.8 46.5C351.6 35.6 349.8 34.5 348.9 34.3C348.3 34.2 347.8 34.3 347.8 34.3C346.5 34.8 346.5 35.9 346.5 36.3C346.9 38.4 347.2 40.5 347.6 42.6C347.5 38.8 347.4 36.4 348.2 36.2C348.3 36.2 348.4 36.2 348.5 36.3C350.8 37.8 351.5 51 351.5 51C351.6 53.3 351.8 55.6 352 58C352.2 61.1 352.5 64.1 352.8 67.1C352.3 67.3 351.8 67.5 351.3 67.8C350.8 68.1 350.3 68.4 349.9 68.7C346.1 68.1 343.3 67.7 342.1 67.6C342.1 67.6 335.7 67.1 322 66.9C320.6 66.9 319.5 67.6 319.4 69.5C319.2 75.4 318.7 81.2 318.4 87.1C318 94.6 315.9 101.7 310.8 107.3C307.3 111.3 302.9 114 296.9 113.7C289.7 113.3 282.3 110.7 276.9 108.9C254.4 101.4 253.4 103.2 249.9 102.1C249.7 102 249 101.8 248.2 101.9C247.4 102 246.8 102.3 246.3 102.6C246 102.1 245.7 101.6 245.3 101C244.5 99.6 243.7 98 243.1 96C242.9 95.4 242.8 94.9 242.7 94.4C254.2 94.3 258.2 87.6 257.8 78.1C257.7 74 256.3 69.9 255.2 65.9C254.7 64.3 254.8 63.2 256 61.9C258.1 59.6 258.1 57.4 256.1 54.9C252.3 50.3 248.6 45.7 246.7 39.8C245.5 36 243.4 32.5 241.6 28.7C242.1 28.6 242.8 28.4 243.1 27.8C244.5 25.3 237 18.9 236.4 18.4C230.9 13.7 225.1 11.8 222.1 10.7C212.3 7.30001 201.7 7.20001 190.9 9.70001C180.7 12 172.8 18.3 166.8 26.9C161 35.2 159.2 44.3 161.9 54.1C163.4 59.4 164.9 64.6 166.6 69.8C170.1 80.6 169.4 91 162 99.9C154.1 109.4 145.4 116.4 145.4 116.4C143.1 118 141.1 119.2 141.2 120.8C141.4 123 145.9 124.3 149.3 125C143.9 128.7 138.4 132.4 132.9 136.3C121.9 144.2 111.5 152.8 99.5001 159.2C84.5001 167.2 68.5001 171.4 51.7001 173.1C47.2001 173.6 43.5001 174.6 42.1001 179.5C41.7001 181.1 40.7001 182.5 40.1001 184C36.0001 195.3 31.9001 206.6 27.9001 218C27.2001 220.1 28.2001 221.8 30.3001 222.4C34.4001 223.5 38.6001 224.4 42.8001 225.1C49.9001 226.2 57.0001 227.2 64.1001 227.8C70.9001 228.4 77.8001 228.7 84.7001 228.7C90.3001 228.7 96.0001 228.4 101.6 227.7C112.4 226.3 117 225.2 119.5 224.3C122.5 223.3 124.9 222.2 126.5 221.4C126 222.4 119 236.5 117.8 239.3C117.6 239.9 117.4 240.4 117.4 240.4C116.8 242 116.5 243.4 116.3 244.4C116.5 244.4 116.7 244.3 116.9 244.3C117.2 244.3 117.4 244.3 117.6 244.4C118.4 243.4 118.9 242.7 119.7 241.2C123.9 232.7 127.6 224.7 131.3 216.2C131.4 216 131.5 215.8 131.6 215.3C132.4 213.3 132.6 212.6 132.8 211.8C133 211.1 133.2 210.3 133 210.2C132.7 210.1 131.8 211.7 131.5 212.1C130.8 213.3 130.6 213.9 129.9 215.3C129.5 216.1 129.1 216.9 128.6 217.5C127.5 218.8 126 219.6 124.2 220.3C112.2 224.8 99.7001 225 87.3001 225.4C74.6001 225.8 61.8001 224.9 49.2001 222.8C42.9001 221.7 36.6001 220.4 29.6001 219.1C34.9001 204.5 40.0001 190.4 45.0001 176.7C46.3001 176.7 47.2001 176.8 48.1001 176.7C54.3001 175.7 60.5001 174.7 66.6001 173.5C86.6001 169.6 104.1 160.3 120.2 148.1C124.8 144.6 132.9 137.2 146.3 129C148.6 127.6 150.6 126.4 151.8 125.7C154.6 126.3 158.9 126.9 164 126.9C165.9 126.9 168.7 127.3 177.4 125.5C183.4 124.3 189.4 123 195.4 122.9C200.2 122.8 205.1 124 209.8 125.1C210.2 125.2 211.5 125.6 213 125.1C214.6 124.6 215.5 123.2 216.1 122.4C218.7 118.4 220.9 114 221.8 112.3C222.4 112.5 223 112.7 223.8 112.8C224.6 112.9 225.4 113 226 113C225.5 115.8 225 118 224.5 119.6C223.9 121.7 223.2 123.5 223.5 123.6C223.7 123.7 224.5 122.4 224.8 122C225.8 120.3 227.2 117.4 228.1 112.8C231.1 112.4 235.6 111.5 240.4 109C243.3 107.5 245.6 105.7 247.3 104.2C248.3 104.3 249.7 104.5 251.4 104.7C253.7 105 258.1 105.8 263.5 107.1C277.2 110.5 281.1 112.4 291 114.9C296.8 116.3 302.3 115.7 307.6 112.6C318.8 106.1 320.6 89.5 320.8 87.5C321 86.1 321.2 82.8 321.3 79C321.4 74.9 321.3 71.5 321.1 69.1C331.9 68.6 342.7 69.2 353.5 71.2C355.1 71.5 356.1 72.2 356.3 73.9C356.7 77.4 357.5 80.9 357.4 84.3C356.9 94.1 356.6 104 355.2 113.7C353.9 122.9 351.9 132 349.4 140.9C345.6 154.5 337.7 165.6 325.8 173.2C314.4 180.5 301.2 181.8 288.1 183.5C284.2 184 280.3 184.2 276.5 185.3C268.1 187.6 262 193.2 257 200C254.2 203.9 252 207.5 250.6 210.2C249.3 212.7 248.6 214.4 248 216.2C247.2 218.7 246.9 220.9 246.7 222.5C244.8 234.7 244.1 239.4 244 240.2C244 240.3 243.9 241.1 243.7 242.2C243.6 242.6 243.6 242.9 243.6 243.2C244.8 243.1 245.6 243.3 246.8 243.2C246.9 242.6 247 241.6 247.2 240.5C247.8 236.1 248.1 233.1 248.3 231.6C248.7 228.2 249.4 223.3 249.9 220.4C252.4 208 260.3 199.5 261.7 198.1C264.7 195 268.2 192.2 272.2 190C279.6 185.8 288.1 185.7 296.2 184.7C304 183.7 311.5 182.4 318.9 179.5C328.7 175.7 336.6 169.7 342.5 161.1C344.9 157.6 346.8 153.9 349 150.3C351 153.1 352.8 156.1 355.1 158.6C363.6 167.4 373.9 173.6 385.1 178.4C389.6 180.3 394.3 181.8 398.5 184.1C410.6 190.7 418.6 201.3 424.8 213.2C428.8 221 431.6 229.3 435.1 237.4C436.1 239.8 438 244.4 438 244.4C438.3 244.4 441.1 244.4 441.4 244.4C441.2 243.9 440.4 242.5 440.1 242C438.9 239.2 437.8 236.4 436.9 233.7C434.6 227.3 432.3 222.2 430.6 218.7C425.3 207.5 420.8 198.3 411.4 189.8C408.6 187.3 406.3 185.6 404.9 184.7C394.2 177.3 388.9 177.8 375.7 170.6C372.1 168.6 368.2 166.4 363.5 162.6C357.2 157.4 352.9 152.1 350.1 148.2C351.3 143 353.5 133.1 356.3 120.4C356.3 120.4 361 98.8 358.6 73.3C358.5 72.2 358.2 71 357.3 70.4C356.6 69.8 355.7 69.7 354.2 69.6C353 69.5 351.9 69.5 351.2 69.6C352.9 68.6 354.4 67.9 355.5 67.3C357.4 66.4 358.1 66.1 358.8 66.3C360.2 66.6 360.9 68.1 361.3 68.6C368.1 81.8 371 91.3 371 91.3C371 91.3 377.4 112 385.4 115.5C386 115.8 386.6 115.9 386.6 115.9C389.2 116.7 391.4 116.4 392.3 116.3C397.7 115.5 414 109.8 417 108.8C421.4 107.3 424.9 106.1 429.9 105.1C435.9 103.9 441 103.5 444.5 103.5C446.3 104.8 453.1 109.6 462.8 109.1C472.7 108.5 479 102.9 480.5 101.4C493.3 101 504.7 101.7 514.3 102.9C537 105.5 554.1 110.9 560.9 113.2C572.7 117.2 582.9 121.5 592.2 125.5C600.4 129 602.7 130.3 612.7 134.7C623.4 139.4 635.4 144.4 641.8 146.9C653.1 151.2 670.6 156.5 695 159C697.7 164.5 701.2 173.3 701.7 184.5C702 190 701.5 194.8 700.8 198.8C699.7 199.1 698 199.5 696 200C687.9 201.9 675.9 203.7 653 201.9C638.2 200.8 629 200.1 616.5 196.8C592.9 190.6 581 187.4 579.7 186.9C577.7 186 571.8 183.4 570.5 185.1C569.5 186.3 571.5 189.4 572.5 190.9C587.9 214.4 603.7 228.7 603.7 228.7C608.4 233 615.1 238.8 622.7 245H625.6C623.9 243.5 618.5 239.3 616.8 237.7C610.9 232.1 604.8 226.7 599.4 220.7C593.3 214 587.9 206.8 582.3 199.7C579.4 196.1 576.7 192.4 574 188.8C575.9 189.4 578.7 190.3 582 191.4C595.2 195.5 612.5 201.2 634.5 203.6C642.5 204.5 650.5 205.6 658.5 205.6C658.5 205.6 675.7 206.3 690.9 204.1C694.9 203.5 698.8 202.3 700.1 201.9C701.4 201.5 701.5 201.4 701.7 201.3C705 199.6 704.9 194.4 704.7 187.9ZM219.3 113.1C219.3 113.1 217.2 118 214 120.8C213.4 121.3 212.9 121.6 212.4 121.7C211.4 122 210.5 121.7 210.2 121.6C207.3 120.8 204.1 121 201.2 120.4C194.6 119 182.2 123.6 167.4 124.2C157.2 124.6 146.2 123 145.9 120.4C145.8 119.5 147.1 118.9 150.7 116C150.7 116 154.4 113.1 159 108.5C162.2 105.3 166.9 100.5 169.8 93.1C170.2 92.1 171.1 89.9 171.6 87.1C174 74.3 166.1 67.5 164.5 48.9C164.2 45.4 164.1 43.6 164.3 41.6C166.2 25.4 183.5 16.3 185.3 15.4C197 9.49999 208.2 10.9 213.1 11.5C215.3 11.8 220.1 12.5 225.6 14.8C229.6 16.6 232.5 18.6 234.6 20C236.2 21.2 241.3 25 240.6 26.4C240.4 26.8 239.9 26.9 239.1 27C235.5 27.4 233.7 27.6 231.6 27.1C226.8 26.1 223.2 24.1 217.8 22.2C213 20.5 205.5 17.8 203.1 20.4C202.9 20.6 202.6 21 202.6 21.5C202.6 23.2 206.4 24.3 210.4 26.1C215.2 28.3 218 29.5 219.8 32C220.7 33.2 221.8 35.3 221.4 47.6C221.2 52.2 220.9 55.9 220.7 58.5C220.2 58.2 218.2 56.9 215.7 57.5C213.6 57.9 212.4 59.3 211.8 60C209.8 62.4 209.2 66 210 68.9C211.6 74.4 217.2 73.1 221.7 79.6C225.7 85.3 225.4 92.2 225.3 93.9C225.2 96.5 224.7 98.4 223.8 101.6C222.8 105.1 221.7 107.8 219.3 113.1ZM226.7 111.2C226.2 111.2 225.5 111.2 224.8 111.1C224.1 111 223.4 110.8 223 110.7C223.7 108.9 224.3 106.9 224.9 104.7C225.7 101.9 226.2 99.3 226.6 96.9C227 99 227.4 101.6 227.3 104.6C227.3 107.1 227 109.4 226.7 111.2ZM238.5 108.3C234.6 110.3 230.9 111 228.6 111.2C229.1 107.6 229.2 104.6 229.2 102.3C229.1 96 228.1 91.5 227 86.7C226.5 84.4 225.9 82.3 224.6 79.9C224.1 78.9 223.4 77.4 221.9 76.2C219.7 74.4 217.2 72.9 214.9 71.2C213.7 70.3 212.6 68.7 212.4 66.7C212.2 65 212.6 62.5 214.6 61.3C214.9 61.1 216.1 60.4 217.5 60.6C218.3 60.7 219 60.6 220.6 62.1C221 62.5 221.6 62.6 222.4 63C222.4 60.2 222.3 57.8 222.4 55.4C222.7 50.2 223.4 45.1 223.4 40C223.4 37.1 223 33.7 221.6 31.3C220.4 29.2 218.5 28.2 215.1 26.2C213 25 209.9 23.4 205.9 22C205.3 21.7 204.9 21.4 204.9 21.3C204.9 21.1 205.5 21 206.2 21.1C207.4 21.3 209 21.7 210.8 22.3C211.3 22.5 211.8 22.6 212.3 22.8C216.8 24.6 221.2 26.7 225.6 28.6C229.9 30.4 234.3 29.9 239.5 29.4C241.1 32.8 243.2 36.4 244.6 40.3C246.6 46.1 249.8 51.2 253.8 55.6C255.7 57.7 255 59.2 253.7 60.5C251.9 62.3 252 64 252.7 66.1C254.3 70.7 254.6 72.5 254.9 73.8C255.1 74.7 255.3 75.9 255.5 77.4C252.6 77.7 250.4 77.4 248.9 77C248.1 76.8 246.8 76.4 246.6 76.7C246.5 77 247.5 77.7 247.8 77.9C248.9 78.7 251.1 79.8 255.4 80C255.5 81 255.8 84.4 253.6 87.4C251.9 89.7 249.5 90.6 248.3 91.1C247.4 91.4 245.4 92.2 242.8 91.9C240.5 91.7 238.8 90.8 238.1 90.4C235.8 89.2 234.9 87.9 234.4 88.2C234 88.5 234.4 90 235.1 91.1C235.8 92.1 236.6 92.7 237.3 93.1C237.9 93.5 238.8 94 240.1 94.2C240.3 95.2 240.6 96.3 241 97.5C241.9 100.2 242.9 102.5 244 104.4C242.8 105.5 241 107 238.5 108.3Z" fill="black"/>
<path d="M749.6 178.3C749.3 179.5 748.6 180.1 747.1 180.5C746.8 180.6 746.7 180.7 746.3 180.7C746.5 180.7 746.8 181 746.9 181.1C747 181.2 747.2 181.5 747.2 182C747.3 182.6 746.7 183.2 746.4 183.4C743.5 186 725.3 184.8 725.3 184.8C724.8 184.8 724.5 184.8 723.6 184.7C722.5 184.6 722 184.5 721.9 184.6C721.9 184.7 722.1 184.9 723.5 185.5C726.1 186.2 728.7 186.9 731.3 187.7C732.8 188.2 734.3 188.6 735.6 189.3C737 190 737 191.1 735.5 191.8C734.7 192.2 733.7 192.6 732.8 192.7C724 193.8 711.9 193.1 703.5 189.6C703.2 189.5 702.9 189.2 702.7 188.8C710.8 190.1 722.5 191.9 730.6 190.6C731.3 190.6 731.4 190 731.4 189.9C731.4 189.7 731 189.6 730.4 189.4C728.2 188.8 726 188.3 723.9 187.6C722.5 187.2 721.1 186.6 719.9 185.8C719.4 185.5 719 184.3 719.2 183.8C719.4 183.2 720.2 183 721.1 182.9C735 184.1 743 183.2 744.3 182.9C744.8 182.8 745.1 182.4 745.1 182.4C745.3 182.2 745.5 182 745.5 181.7C745.5 181.4 745 180.9 744.8 180.9C744.4 181 741.6 180.9 741.2 180.9C737.9 180.9 736.4 180.9 733.2 180.7C733.2 180.7 726.4 180.5 723.9 179.9C723.4 179.8 723.3 179.6 723.3 179.5C723.3 179.4 723.3 179.3 723.3 179.2C723.3 179.2 723.4 179.1 723.6 179C724.2 178.8 743.8 179.1 745.4 179C745.8 179 746.5 178.9 747 178.4C747.5 177.9 747.6 177.4 747.3 176.9C747 176.3 745.8 176 745.4 176C742.2 176 739 176 735.8 176C728.2 176.1 723.2 175.6 723.2 175.2C723.2 174.8 729.5 174.4 734.1 174.3C737.3 174.2 740.2 174.3 742.7 174.4C743.2 174.1 743.4 173.6 743.3 173.1C743.2 172.5 742.5 172 741.9 172C738.9 172 736.9 171.6 733.2 171.5C729.9 171.3 726.9 171.3 723.7 171.2C723.5 171.2 723.3 171.1 723.3 170.9C723.3 170.7 723.5 170.6 723.7 170.5C727 170.3 729 170.3 730.6 170.2C733 170.1 734.9 170 737.2 169.8C737.3 169.8 737.6 169.7 737.9 169.5C738.2 169.3 738.3 168.9 738.2 168.6C738.1 168.1 737.3 167.6 736.2 167.8C726 167.7 715.4 168 704.5 168.7C702.5 168.8 702.4 168.9 700.4 169C699.5 168.8 699.3 168.6 699.3 168.4C699.1 166.1 730.8 165.5 735.7 165.7C735.9 165.7 738.2 165.9 739.7 167.3C740.3 167.9 740.4 168.4 740.4 168.6C740.4 169.7 739.3 170.1 739.2 170.1C740.5 170.3 742.1 170.3 743.3 170.5C744.8 170.9 745.7 171.8 745.7 172.8C745.7 173.6 745 174.1 745 174.1C744.9 174.1 744.9 174.2 744.8 174.2C745.6 174.2 746.4 174.2 747.1 174.3C747.7 174.4 748.3 174.8 748.6 175.2C749.5 176.5 749.9 177.3 749.6 178.3Z" fill="black"/>
<path d="M328.6 52.2C327.8 50.5 326.8 48.6 325.5 46.7C324.6 45.3 323.4 43.6 323 43.8C322.7 44 322.9 45.3 323.3 46.8C324.2 50.5 324.7 52.4 326 55.7C328.2 61 329.8 64.7 330.6 65.9C330.6 66 331.1 66.6 331.2 67.4C331.2 67.7 331.3 68.3 331 68.6C330.7 68.9 330.2 68.7 330 68.7C328 68.1 325 59.2 325 59.2C323.5 54.7 322 50.5 321.2 44.7C321 43.1 320.8 41 321.6 40.6C322.4 40.2 323.8 41.5 324.4 42C325.8 43.3 328.1 46.1 329.3 51.9C329.5 52.3 329.3 52.7 329 52.8C329 52.8 328.7 52.6 328.6 52.2Z" fill="black"/>
<path d="M334 49.7C333.5 47.7 332.7 44.5 331.7 40.5C330 33.6 329.1 29.7 328.5 29.8C328.4 29.8 328.2 30 328.1 31C328.4 37.2 328.7 43.5 329 49.7C328.5 48.7 328 47.8 327.5 46.8C327.1 41.4 326.8 36 326.4 30.6C326.4 30.3 326.4 29.9 326.5 29.4C326.6 29.2 326.9 27.5 328 27.3C328.9 27.1 329.6 28.1 329.7 28.2C330 28.6 330.2 29 330.2 29.2C330.6 30.4 330.4 28.5 331.8 33.7C332.3 35.7 332.6 36.7 332.9 37.9C333.9 42.5 334.6 47.6 334.8 49.7C334.8 49.9 334.7 50.1 334.5 50.1C334.3 50.1 334 50 334 49.7Z" fill="black"/>
<path d="M345.6 68.8C345.6 66.8 345.7 63.2 345.8 58.8C345.9 53.2 346 49.2 346 44.1C346 44.1 345.8 31 344.1 30.3C344.1 30.3 344 30.2 343.8 30.3C343.1 30.5 343.2 33 342.9 36.6C342.8 37.9 342.5 41.6 342.1 41.6C342 41.6 341.8 41 341.5 38.4C341.2 35.4 341.6 33.2 341.8 31.9C342.2 30 342.7 29.3 343.3 29C343.6 28.8 343.9 28.8 344.2 28.9C346.3 29.3 347.2 37.5 347.4 39.8C347.7 43 347.7 45.6 347.7 47.4C347.7 50 347.6 51.9 347.6 52.7C347.4 55.9 347.2 60.9 347.1 69C346.7 68.9 346.2 68.8 345.6 68.8Z" fill="black"/>
<path d="M338 49.2C337.7 49.2 336.9 44.4 335.7 36.8C335 32.7 332.6 26.3 331.5 26.5C331.1 26.6 330.8 27.3 330.6 30.3C330.3 29.8 330 29.2 329.7 28.7C329.4 26.3 330.1 24.5 331.2 24.1C331.4 24 331.8 24 332.5 24.3C333.7 25.1 336.5 30.9 337.3 36.4C338.3 43.2 338.4 49.2 338 49.2Z" fill="black"/>
<path d="M3.60001 206.5C3.60001 206.6 3.5 206.6 3.5 206.7C3.5 206.6 3.5 206.4 3.5 206.3C3.6 206.4 3.60001 206.4 3.60001 206.5Z" fill="black"/>
<path d="M3.60001 206.5C3.60001 206.6 3.5 206.6 3.5 206.7C3.5 206.6 3.5 206.4 3.5 206.3C3.6 206.4 3.60001 206.4 3.60001 206.5Z" fill="black"/>
<path d="M341.9 48.1C340.6 41.1 339.2 34.2 337.9 27.2C337.6 27.1 337 27 336.6 27.3C336.3 27.6 336.3 28.1 336.3 28.9C336.3 29.6 336.3 30.6 336.2 31.8C335.8 30.9 335.4 30.1 334.9 29.2C334.7 27.1 335.6 25.4 336.8 25.2C337.6 25 338.4 25.5 338.6 25.7C339 26.7 339.3 27.8 339.7 28.8C340.5 32.1 341 34.9 341.4 37.3C341.6 38.7 343.2 48.2 342.3 48.4C342.2 48.5 342.1 48.3 341.9 48.1Z" fill="black"/>
<path d="M230.6 47.2C229.5 46.4 233 38.5 237 37.8C237.4 37.7 238.6 37.5 239.2 38.2C239.6 38.7 239.5 39.5 239.4 39.7C239.1 41.2 237.7 41.4 235.7 43.2C233.6 45.1 233.2 46.7 231.2 47.2C230.8 47.3 230.7 47.3 230.6 47.2Z" fill="black"/>
<path d="M244.1 55C244.1 55.2 244.1 56.8 243.1 57.3C242.1 57.8 241 56.9 240.9 56.9C239.7 55.9 239.9 54.2 240 54C240 53.9 240.3 52.1 241.3 51.8C242.4 51.5 244 53.2 244.1 55Z" fill="black"/>
<path d="M92.9001 164.9C93.3001 164.9 94.4001 173.2 91.6001 182.2C90.8001 184.8 86.7001 196.3 85.4001 198.3C85 199 84.7001 199.6 84.7001 200.2C84.7001 200.7 84.8 201.2 84.8 201.3C85 202.3 87.3 214.7 81.3 223.9C80 225.9 78.5001 227.5 78.1001 227.3C77.5001 227 81.3001 221.3 82.4001 214C83 209.8 82.4001 206.5 82.2001 205.4C82.2001 205 82 204.7 81.9001 204C79.3001 207.4 76.9 210.7 73.8 213.5C67.7 219 60.7001 222.3 52.4001 221.9C49.4001 221.8 46.4001 221.1 43.6001 219.5C40.4001 217.7 38.5 211.6 39.3 208.6C41 202.1 44.8001 197 49.7001 192.6C53.3001 189.3 57.2001 186.3 62.0001 184.7C68.8001 182.4 80.1001 185.4 82.7001 194.5C82.9001 195.2 83.3 195.9 83.8 197.2C86 192.6 88.8001 186 90.6001 177.7C92.4001 170.2 92.6001 164.9 92.9001 164.9ZM47.7001 218.5C53.6001 221 59.7001 219.4 65.6001 216.6C66.8001 216 74.5 212.5 79.3 204.2C80.1 202.8 80.6001 201.6 81.0001 200.8C81.0001 199.7 80.9 198.1 80.3 196.2C79.9 194.9 78.8 190.9 74.8 188.8C69.9 186.2 64.9001 186.1 60.1001 188.7C52.9001 192.6 47.0001 198.1 43.1001 205.3C39.8001 211.2 42.4001 217.5 47.7001 218.5Z" fill="#D7D7D7"/>
<path d="M310.3 111.6C310.4 109.6 312.7 107.7 314.8 107C317.2 106.1 319.1 106.7 323.9 108.2C329.4 109.8 332.1 110.6 332.6 110.8C342 114 355.4 106.3 357.2 93.1C357.6 90.3 357.3 87.5 357.7 84.6C358.9 85.6 358.9 87 358.9 88.1C359.1 97.9 356 106.6 346.4 111.6C340 114.9 333.5 115.3 326.7 113.5C323.1 112.6 319.4 112 315.7 112.1C314.5 112.1 313.6 112.6 312.6 113.2C311.9 113.6 311.4 113.8 310.9 113.5C310.2 113 310.3 111.7 310.3 111.6Z" fill="#D7D7D7"/>
<path d="M115.6 157.3C116 157.4 115.7 159.9 115.6 160.5C114.6 168.6 117.8 180.3 118.4 182.3C120.8 190.6 123.8 198.7 130.7 204.5C135.5 208.6 141.2 210.8 147.3 212.1C150.5 212.8 153.9 213.2 157.2 213.8C158.6 214 159 213.7 158.4 212.2C156.1 205.7 154.6 199.1 154.3 192.1C153.6 179.8 158.8 170.5 167.6 162.9C170.9 160 175.2 159.1 179.5 158.8C185.4 158.4 191 158.9 195.7 163.3C197.1 164.6 198.5 166 199.3 167.6C201.8 172.5 203.5 177.7 204 183.2C204.7 191.6 201.4 198.5 195.8 204.4C189.4 211.2 181.9 216.2 172.6 218.2C171.2 218.5 169.8 218.3 168.5 218.8C167.3 219.3 167.1 219.6 167.8 220.7C173.3 229.4 180.7 235.2 191 237.1C196.4 238.1 201.5 237.7 206.4 235C208.1 234.1 208.4 233.2 207.5 231.3C205.5 227.1 204 222.8 205.1 217.9C206.3 212.9 210.7 209.5 215.1 210.2C221.6 211.3 223.3 216.5 222.4 221.5C221.5 226.7 218.9 230.8 214.7 234.3C216.7 235.6 218.6 236.5 220.7 236.9C220.8 236.9 221.6 237 222.2 237.4C222.4 237.5 222.7 237.8 222.7 238C222.7 238.1 222.6 238.5 220.3 238.6C217.4 238.7 215.4 238.8 213.3 237.7C212.6 237.3 212 236.9 211 236.9C210.1 237 209.4 237.5 209.2 237.7C205 240.8 200.2 242 195.2 241.6C180.8 240.4 169.9 233.5 163.1 220.4C162.6 219.5 162.2 218.7 161 218.8C158.9 219 156.9 218.4 154.9 218.3C152.5 218.2 146.1 217.3 140 215C133 212.3 128.3 208.3 127.1 207.2C127.1 207.2 113.5 195.2 112.2 171.6C112 168.5 112.4 165.7 112.4 165.7C112.6 164 112.9 162.6 113.1 161.8C114 159.8 115.1 157.1 115.6 157.3ZM158.8 190.5C158.9 200.2 160.2 207 163.6 213.2C164.2 214.2 164.7 214.3 165.8 214.1C170.8 213.2 175.4 211.4 180.1 209.5C189.7 205.6 200.6 194.8 198.8 180.7C198.1 175.4 194.9 171.1 192.9 166.4C192.8 166.2 192.5 166.1 192.2 165.9C185.8 161.2 174.5 162 168.9 167.6C161.9 174.6 158.9 183.3 158.8 190.5ZM219.1 219.5C219.1 216.2 217.8 214.4 215.5 213.9C211.7 213.2 208 215.8 207.9 219.7C207.8 223.3 209 226.6 210.8 229.8C211.4 230.8 212.1 231 213.1 230.3C216.6 227.4 218.9 223.8 219.1 219.5Z" fill="#D7D7D7"/>
</svg>
