<?xml version="1.0" encoding="UTF-8"?>
<svg version="1.1" xmlns="http://www.w3.org/2000/svg" width="512" height="512">
<path d="M0 0 C5.7511422 0.00258855 11.50228307 0.00016837 17.25342536 -0.00138617 C26.90233885 -0.00318981 36.55124462 -0.00085002 46.20015693 0.00395441 C57.23937398 0.00938883 68.27857253 0.00763293 79.31778914 0.00212801 C88.91649898 -0.00246083 98.51520336 -0.00302576 108.11391395 -0.00043333 C113.79374513 0.00109878 119.47356771 0.00141044 125.15339828 -0.00196981 C137.40653879 -0.00795504 149.65879933 0.01721015 161.91167808 0.1001687 C165.74532844 0.1256966 169.57873166 0.13872442 173.4124639 0.14211512 C178.00669714 0.14778404 182.59976243 0.18341785 187.19361699 0.24194598 C188.87727341 0.2588144 190.56106469 0.2657278 192.24480093 0.26175332 C206.50823814 0.23951148 206.50823814 0.23951148 211.11431098 4.0303216 C214.63769334 8.38936782 214.63769334 8.38936782 214.62325263 12.1343255 C214.22115302 14.78715754 214.22115302 14.78715754 213.47090888 17.642138 C213.19311591 18.70231134 212.91532294 19.76248468 212.62911201 20.85478449 C212.31780341 21.97828302 212.00649482 23.10178156 211.68575263 24.2593255 C211.20912177 25.99581354 211.20912177 25.99581354 210.72286201 27.76738214 C204.09514387 51.15011384 193.57174017 74.48086978 171.62325263 87.1343255 C168.0326069 89.04201938 164.41182444 90.66099202 160.62325263 92.1343255 C159.84208076 92.45530207 159.06090888 92.77627863 158.25606513 93.10698175 C145.07563527 97.6338067 127.25120294 97.07366537 114.62325263 91.1343255 C109.22846032 88.1821528 104.7569935 84.70319699 100.62325263 80.1343255 C99.80920966 79.2390716 99.80920966 79.2390716 98.97872138 78.32573175 C94.17977112 72.96219912 89.80240383 67.33041393 85.74825263 61.3843255 C81.56052068 56.95025638 75.71518612 54.38297585 69.62325263 54.1343255 C62.98113013 54.82957571 57.95996443 57.20772048 52.62325263 61.1343255 C51.82919013 61.7118255 51.03512763 62.2893255 50.21700263 62.8843255 C47.12677273 65.56500686 44.82435504 68.50353486 42.37325263 71.7593255 C30.44980317 87.17241806 20.49157725 95.96066058 0.87325263 99.8843255 C-0.19924737 99.9668255 -1.27174737 100.0493255 -2.37674737 100.1343255 C-3.31260674 100.21166925 -3.31260674 100.21166925 -4.26737237 100.2905755 C-22.48016841 101.10003311 -39.95300681 93.59026982 -53.50174737 81.8843255 C-70.99758277 65.46813817 -79.47389484 45.18347224 -85.31424737 22.3843255 C-85.63171929 21.15238459 -85.63171929 21.15238459 -85.95560479 19.89555597 C-87.0830367 15.23512012 -87.76387089 10.96415228 -87.37674737 6.1343255 C-85.50966232 3.76935111 -84.05613306 2.47401835 -81.37674737 1.1343255 C-79.26098279 0.97844914 -77.14042483 0.8865379 -75.01989007 0.82258844 C-74.02690701 0.791893 -74.02690701 0.791893 -73.01386368 0.76057744 C-70.77533315 0.69423353 -68.53669359 0.63646903 -66.29788995 0.58012629 C-65.50993212 0.55916399 -64.7219743 0.5382017 -63.91013896 0.51660419 C-42.609691 -0.03949755 -21.30618553 -0.01265743 0 0 Z M-11.64237237 14.3374505 C-12.24380059 15.43025324 -12.84522882 16.52305597 -13.46488214 17.64897394 C-14.09579766 18.79913996 -14.72671319 19.94930597 -15.37674737 21.1343255 C-16.69106296 23.33974412 -18.01806443 25.53764873 -19.35721612 27.7280755 C-20.04098321 28.85157404 -20.7247503 29.97507257 -21.4292376 31.13261652 C-21.77816064 31.70488977 -22.12708367 32.27716303 -22.48658013 32.8667779 C-24.34296579 35.91154897 -26.1959101 38.95841198 -28.04862237 42.00541925 C-28.60047456 42.91287142 -28.60047456 42.91287142 -29.16347528 43.83865595 C-33.07085783 50.26853491 -36.94062151 56.72085568 -40.79740167 63.1812005 C-41.24510919 63.93014582 -41.69281671 64.67909113 -42.15409112 65.45073175 C-42.53815118 66.09469904 -42.92221124 66.73866632 -43.31790948 67.40214777 C-44.29750846 69.00469671 -45.33488849 70.57153718 -46.37674737 72.1343255 C-46.29103076 74.22723708 -46.29103076 74.22723708 -45.37674737 76.1343255 C-44.38674737 76.7943255 -43.39674737 77.4543255 -42.37674737 78.1343255 C-42.00090508 77.50268488 -41.6250628 76.87104425 -41.23783135 76.220263 C-30.66250282 58.468419 -19.83994768 40.8897886 -8.76737237 23.44291925 C-8.20493829 22.55588312 -7.64250421 21.66884699 -7.06302667 20.75493097 C-6.00435045 19.08709013 -4.94342171 17.42067631 -3.8799212 15.75590754 C-3.4161004 15.02613703 -2.9522796 14.29636652 -2.47440362 13.54448175 C-2.06714044 12.90647638 -1.65987725 12.26847101 -1.24027276 11.61113214 C-0.29261955 10.27557302 -0.29261955 10.27557302 -0.37674737 9.1343255 C-6.73486006 7.79577546 -8.56892577 8.57402975 -11.64237237 14.3374505 Z M25.62325263 9.1343255 C25.29325263 10.4543255 24.96325263 11.7743255 24.62325263 13.1343255 C25.61325263 12.1443255 26.60325263 11.1543255 27.62325263 10.1343255 C26.96325263 9.8043255 26.30325263 9.4743255 25.62325263 9.1343255 Z M137.21700263 11.8687005 C136.48879353 13.19100643 135.79338026 14.53165761 135.12325263 15.8843255 C134.28174637 17.4395229 133.43922158 18.99416942 132.59590888 20.548388 C132.13329658 21.42527277 131.67068427 22.30215754 131.19405341 23.20561457 C128.44145849 28.33774522 125.51670342 33.37280046 122.61519599 38.42167902 C121.56436964 40.25302191 120.5179031 42.08678536 119.47286201 43.92143488 C114.64180489 52.39913315 109.71819987 60.81257835 104.62325263 69.1343255 C105.61325263 70.4543255 106.60325263 71.7743255 107.62325263 73.1343255 C107.93963691 72.63207453 108.25602118 72.12982355 108.58199286 71.61235285 C119.02643108 55.03801736 119.02643108 55.03801736 123.99825263 47.3218255 C127.96522292 41.16067018 131.92564425 34.99540938 135.87325263 28.8218255 C136.46412665 27.90232111 137.05500068 26.98281672 137.66377997 26.03544855 C141.19368257 20.5067998 144.51700417 14.9120539 147.62325263 9.1343255 C141.6302699 8.26396352 141.6302699 8.26396352 137.21700263 11.8687005 Z M10.62325263 10.1343255 C5.80872256 16.83821576 1.36204757 23.67957671 -2.87674737 30.7593255 C-7.90815902 39.09791249 -13.01139432 47.38588518 -18.18924737 55.6343255 C-20.58741318 59.46620424 -22.98279192 63.2998152 -25.37674737 67.1343255 C-25.88769952 67.95126886 -26.39865167 68.76821222 -26.92508721 69.60991144 C-28.25123179 71.73771109 -29.56625393 73.87186278 -30.87674737 76.0093255 C-31.44679498 76.91908136 -31.44679498 76.91908136 -32.0283587 77.84721613 C-32.87412718 79.23990805 -33.63602827 80.68303286 -34.37674737 82.1343255 C-34.04674737 82.7943255 -33.71674737 83.4543255 -33.37674737 84.1343255 C-32.71674737 84.1343255 -32.05674737 84.1343255 -31.37674737 84.1343255 C-30.18403891 82.68745914 -30.18403891 82.68745914 -29.04862237 80.751513 C-28.35446221 79.63582941 -28.35446221 79.63582941 -27.64627862 78.49760675 C-26.89411065 77.26590754 -26.89411065 77.26590754 -26.12674737 76.0093255 C-25.03879047 74.25635827 -23.95022463 72.50376886 -22.86112237 70.751513 C-22.29071221 69.82951105 -21.72030206 68.9075091 -21.13260674 67.95756769 C-18.25188864 63.32566779 -15.31240793 58.73151947 -12.37674737 54.1343255 C-3.28365664 39.85859879 5.80441019 25.58166445 14.62325263 11.1343255 C13.30325263 10.8043255 11.98325263 10.4743255 10.62325263 10.1343255 Z M158.62325263 10.1343255 C156.90647004 12.21499136 155.53249339 14.16809578 154.12325263 16.4468255 C153.69238349 17.1183465 153.26151435 17.7898675 152.81758857 18.48173761 C151.40538065 20.69064682 150.01397607 22.9118388 148.62325263 25.1343255 C147.68156339 26.61934723 146.73884839 28.10371897 145.79512763 29.5874505 C143.80397959 32.72435607 141.82192763 35.86677525 139.84590888 39.01323175 C136.35576658 44.5673552 132.83482283 50.10168614 129.31075263 55.6343255 C128.74839911 56.51741388 128.1860456 57.40050226 127.60665107 58.31035089 C126.78535712 59.59993708 126.78535712 59.59993708 125.94747138 60.9155755 C125.41041572 61.76248957 124.87336005 62.60940363 124.32002997 63.48198175 C123.10995175 65.37353425 121.88460717 67.25535655 120.64913154 69.13041925 C120.00766181 70.11139582 119.36619208 71.09237238 118.70528388 72.1030755 C117.82126899 73.44015558 117.82126899 73.44015558 116.91939521 74.80424738 C115.38019408 77.12688608 115.38019408 77.12688608 115.62325263 80.1343255 C119.45443222 78.85726564 119.94948728 77.4835747 122.06465888 74.095263 C122.72538398 73.04773859 123.38610908 72.00021418 124.06685615 70.9209466 C124.41257667 70.36429316 124.75829719 69.80763971 125.11449409 69.23411798 C126.55547916 66.91404294 128.01440389 64.60545669 129.47248054 62.29609919 C130.19695003 61.14823949 130.92047418 59.99978258 131.64304328 58.85072565 C134.25982386 54.69204873 136.93683967 50.58150254 139.68575263 46.5093255 C144.02037548 40.05825382 148.30038043 33.57217676 152.56075263 27.0718255 C153.21245429 26.08295343 153.86415595 25.09408136 154.53560615 24.07524347 C157.50823649 19.53088201 160.36421497 15.07753337 162.62325263 10.1343255 C161.30325263 10.1343255 159.98325263 10.1343255 158.62325263 10.1343255 Z M173.62325263 10.1343255 C173.95325263 10.7943255 174.28325263 11.4543255 174.62325263 12.1343255 C174.95325263 11.4743255 175.28325263 10.8143255 175.62325263 10.1343255 C174.96325263 10.1343255 174.30325263 10.1343255 173.62325263 10.1343255 Z M172.62325263 12.1343255 C172.62325263 15.1343255 172.62325263 15.1343255 172.62325263 15.1343255 Z M23.62325263 13.1343255 C23.62325263 16.1343255 23.62325263 16.1343255 23.62325263 16.1343255 Z M170.62325263 15.1343255 C170.62325263 18.1343255 170.62325263 18.1343255 170.62325263 18.1343255 Z M20.62325263 17.1343255 C21.62325263 19.1343255 21.62325263 19.1343255 21.62325263 19.1343255 Z M167.62325263 19.1343255 C168.62325263 21.1343255 168.62325263 21.1343255 168.62325263 21.1343255 Z M165.62325263 22.1343255 C166.62325263 24.1343255 166.62325263 24.1343255 166.62325263 24.1343255 Z M163.62325263 25.1343255 C164.62325263 27.1343255 164.62325263 27.1343255 164.62325263 27.1343255 Z M159.62325263 31.1343255 C160.62325263 33.1343255 160.62325263 33.1343255 160.62325263 33.1343255 Z " fill="#000000" transform="translate(201.37674736976624,191.86567449569702)"/>
<path d="M0 0 C0.83805176 0.19867676 1.67610352 0.39735352 2.53955078 0.60205078 C32.40124764 7.94238687 58.46943729 22.25063934 80.9765625 43.1875 C83.07089533 45.14980443 83.07089533 45.14980443 86 47 C86 47.66 86 48.32 86 49 C86.66 49 87.32 49 88 49 C89.41015625 50.3984375 89.41015625 50.3984375 91.0625 52.375 C92.9817382 54.65212893 94.88946345 56.88661231 96.96875 59.01953125 C149.55993543 113.47495646 156.36229532 197.89400526 155.12548828 269.37792969 C154.88077776 281.29550703 154.16695709 293.13463091 153 305 C152.93447937 305.67794617 152.86895874 306.35589233 152.80145264 307.05438232 C150.62732527 329.48849571 147.58028965 351.74916282 144 374 C144.73637695 373.97905273 145.47275391 373.95810547 146.23144531 373.93652344 C149.57082442 373.85332856 152.90998549 373.80132843 156.25 373.75 C157.40886719 373.71648437 158.56773437 373.68296875 159.76171875 373.6484375 C160.87675781 373.63554687 161.99179687 373.62265625 163.140625 373.609375 C164.16704102 373.58842773 165.19345703 373.56748047 166.25097656 373.54589844 C169.72816301 374.1202827 170.84736414 375.26623901 173 378 C174.0625 380.9375 174.0625 380.9375 174 384 C171.35401168 387.45899526 169.84510469 388.84846759 165.51102108 389.62559515 C164.14070672 389.65134987 162.76970991 389.64973905 161.39935207 389.62641239 C160.63838983 389.63338 159.87742758 389.64034761 159.09340587 389.64752635 C156.53437174 389.66482073 153.97684153 389.6463797 151.41783142 389.62818909 C149.56844934 389.63323243 147.71907215 389.64045961 145.86970621 389.64968723 C140.78065687 389.66866645 135.69208618 389.65634381 130.60304868 389.6389643 C125.11763842 389.62562366 119.63229973 389.64101546 114.14689636 389.65278625 C103.39849648 389.67119153 92.65027805 389.66263139 81.90188377 389.64469803 C73.16918572 389.6306886 64.43653702 389.62677566 55.70382881 389.6301403 C54.46229932 389.63061775 53.22076982 389.63109519 51.94161822 389.6315871 C49.4197128 389.6326134 46.8978074 389.63366876 44.375902 389.63475286 C21.38816185 389.64358482 -1.59949824 389.62490938 -24.58721179 389.59422263 C-45.58039245 389.56635797 -66.5734573 389.56139965 -87.56665039 389.57641602 C-92.94266535 389.58023833 -98.31868032 389.58403309 -103.69469547 389.5875864 C-104.68741695 389.58824312 -104.68741695 389.58824312 -105.7001934 389.58891311 C-123.23354414 389.60014762 -140.76688583 389.5927352 -158.30023378 389.57970566 C-160.81270404 389.57786121 -163.3251743 389.57602648 -165.83764458 389.57420158 C-167.07392819 389.57328949 -168.3102118 389.5723774 -169.58395856 389.57143768 C-178.31002686 389.56582376 -187.03606592 389.56914738 -195.76213264 389.57574654 C-206.39068068 389.58346513 -217.01910409 389.57678028 -227.64762694 389.5515715 C-233.07390852 389.5390426 -238.49999572 389.53297093 -243.92628479 389.54411316 C-248.8886574 389.55411067 -253.85064133 389.54579223 -258.8129664 389.52253198 C-260.61300423 389.5173475 -262.41307654 389.51897946 -264.21309961 389.52792663 C-266.65093596 389.53904079 -269.08743935 389.52577959 -271.52519321 389.50615788 C-272.23200268 389.51523669 -272.93881215 389.52431551 -273.66704008 389.53366944 C-276.98613844 389.48121639 -278.74281232 389.19140638 -281.43592542 387.18711513 C-283.72430004 383.987179 -283.54776419 381.83434933 -283 378 C-281.31797328 375.48600307 -279.99516815 374.20250515 -276.984375 373.58984375 C-274.56734865 373.3816202 -272.17552535 373.29168872 -269.75 373.25 C-268.48929687 373.20552734 -268.48929687 373.20552734 -267.203125 373.16015625 C-265.1359285 373.08968364 -263.06795967 373.04255061 -261 373 C-261.11593506 371.93789307 -261.23187012 370.87578613 -261.35131836 369.78149414 C-261.78977352 365.75427357 -262.22265721 361.7264687 -262.65405273 357.69848633 C-262.83976179 355.9714401 -263.02688411 354.24454512 -263.21557617 352.51782227 C-265.44498836 332.09640665 -266.23974713 311.91932857 -266.25 291.375 C-266.25101212 289.54585052 -266.25101212 289.54585052 -266.25204468 287.67974854 C-266.23560072 268.93517129 -265.72513416 250.57345095 -263 232 C-262.82839355 230.79956055 -262.65678711 229.59912109 -262.47998047 228.36230469 C-253.77270352 169.17772158 -231.37132675 114.24303168 -192 69 C-191.37480469 68.26265625 -190.74960938 67.5253125 -190.10546875 66.765625 C-157.65685257 28.76958732 -109.67515836 2.11359949 -59.71630859 -2.83447266 C-40.11054773 -4.02921523 -19.18451249 -4.57714092 0 0 Z M-119 25 C-119.97453125 25.44601563 -120.9490625 25.89203125 -121.953125 26.3515625 C-142.22137931 35.82115673 -159.94966135 50.62641491 -176 66 C-176.75023437 66.70898438 -177.50046875 67.41796875 -178.2734375 68.1484375 C-183.66966394 73.37403227 -188.31585916 79.13860606 -193 85 C-193.63550781 85.75667969 -194.27101562 86.51335937 -194.92578125 87.29296875 C-207.15593606 102.00460424 -217.29421858 118.73750063 -225.3125 136.0625 C-225.59313293 136.66882263 -225.87376587 137.27514526 -226.16290283 137.89984131 C-246.30107554 181.61017317 -255.78497695 228.98633918 -257 277 C-257.02191406 277.79245117 -257.04382813 278.58490234 -257.06640625 279.40136719 C-257.35533047 291.71435428 -256.93201527 304.01111776 -256.36221313 316.30993652 C-256.29024111 317.874961 -256.22156621 319.44014262 -256.15707397 321.00549316 C-255.40388058 338.8087806 -253.0304016 356.23398597 -251 374 C-123.95 374 3.1 374 134 374 C136.49664803 361.65434766 136.49664803 361.65434766 138.5 349.25390625 C138.62095535 348.40701736 138.74191071 347.56012848 138.86653137 346.68757629 C139.25033971 343.98001691 139.62617823 341.27145513 140 338.5625 C140.13006439 337.6277887 140.26012878 336.69307739 140.39413452 335.7300415 C144.40185353 306.80027154 147.23093037 277.7892839 147.1875 248.5625 C147.18656342 247.73717773 147.18562683 246.91185547 147.18466187 246.06152344 C147.08755882 206.27893063 142.51888902 164.61936733 126 128 C125.51112305 126.91428711 125.02224609 125.82857422 124.51855469 124.70996094 C117.51748722 109.3457023 110.1450911 94.58233167 100 81 C99.30648438 80.07058594 98.61296875 79.14117187 97.8984375 78.18359375 C95.98821174 75.73488871 94.01532491 73.36292223 92 71 C91.02977503 69.84519731 90.05973755 68.6902371 89.08984375 67.53515625 C81.42056655 58.41427827 81.42056655 58.41427827 73 50 C72.34 50 71.68 50 71 50 C71 49.34 71 48.68 71 48 C69.01829401 46.24119776 67.0343474 44.61238424 64.9375 43 C64.3069873 42.51233154 63.67647461 42.02466309 63.02685547 41.5222168 C51.36613931 32.60884259 39.38013736 25.06365775 26 19 C25.38688965 18.72172363 24.7737793 18.44344727 24.14208984 18.15673828 C-21.96894258 -2.36595329 -74.57342394 2.78671197 -119 25 Z " fill="#000000" transform="translate(311,63)"/>
<path d="M0 0 C0.99 0.66 1.98 1.32 3 2 C1.74498005 7.31021884 -0.15151796 11.37652705 -3.375 15.8125 C-3.81416748 16.41707031 -4.25333496 17.02164062 -4.70581055 17.64453125 C-15.58810245 32.06008439 -31.33383898 40.06365817 -49.0625 42.6875 C-62.01613082 43.71556594 -74.10714 42.53031413 -86 37 C-86 36.01 -86 35.02 -86 34 C-81.14662688 33.81761855 -76.58540661 33.70623261 -71.875 35 C-59.39022513 38.04399105 -46.2856087 36.44987827 -34.99609375 30.38671875 C-32.23780891 28.69422016 -29.61133335 26.91021974 -27 25 C-26.34257812 24.52691406 -25.68515625 24.05382812 -25.0078125 23.56640625 C-18.62688034 18.56091947 -14.19575326 11.67489654 -10.6875 4.4375 C-8.06448811 -0.90567236 -5.6667311 -0.29824901 0 0 Z " fill="#000000" transform="translate(357,320)"/>
</svg>
