<svg width="1440" height="396" viewBox="0 0 1440 396" fill="none" xmlns="http://www.w3.org/2000/svg"><path d="M0 0h1440v396H0z"/><path d="M1346 114.8c1.4-.2 2.7-.4 4-.6 3.8-.6 7.4-.3 11 .9.8.3 1 .7.7 1.5q-.45 1.05-1.5 1.5c-1.7.7-3.6 1.1-5.4 1.4-1.6.3-3.2.6-4.8.7-.1 0-.3 0-.3.1s0 .3.1.4c1.5 1.5 2.8 3 4.2 4.6.9 1 1.8 2.1 2.6 3.3.4.7.7 1.5.1 2.3-.5.7-1.7 1-2.6.6-1.7-.7-3.3-1.7-4.9-2.7-1.4-.9-2.7-1.8-4-2.7-.2-.1-.4-.3-.5-.5s-.2-.5 0-.7c.2-.3.5-.2.7-.1 1 .4 2 1 2.9 1.6 1.7 1 3.5 2.1 5.5 3-.8-1.1-1.6-1.9-2.4-2.8-1.6-1.8-3.5-3.3-5-5.2-.2-.2-.4-.4-.6-.5-.5-.3-.6-.8-.6-1.4 0-.5.2-.9.8-.9 1 0 2 0 3-.1 2.8-.4 5.6-.7 8.3-1.4.2-.1.5-.1.9-.3-1.6-.6-3.2-.9-4.8-1-2.4-.2-4.9-.1-7.3.2-.3 0-.6.1-.9.1-1.2 0-1.9-1.2-1.3-2.3l1.8-3c-1.4 1.5-3.1 2.6-3.8 4.7-.6 1.7-2.1 1.9-3.2.5-1.6-1.9-3.1-3.8-4.8-5.7.5 1.3 1 2.6 1.6 3.9.3.8.7 1.5 1.1 2.2.3.5.5 1 1.1 1.2.4.2.5.5.2.9q-.75 1.5-2.4 2.1c-2.6.8-5.1 1.9-7.8 2.9.8.2 1.4.2 2.1.2 2.8 0 5.5-.4 8.2-1.2.4-.1 1-.4 1.2.1s-.4.8-.8 1.1c-.2.1-.3.2-.5.3-.4.1-.4.3-.3.7.5 1.4.5 2.9.8 4.4.3 1.6.5 3.1 1 4.8.2-1.8.4-3.5.6-5.2.2-1.2.4-2.5.9-3.6.1-.3.3-.5.6-.4s.3.4.3.6c-.6 3.1-.4 6.3-.5 9.4q-.15 1.35-.6 2.7c-.2.5-.6.7-1.1.7-1.3 0-1.9-.9-2.4-1.9-.9-1.9-1.2-4-1.6-6.1-.2-1-.3-2-.5-2.9-.2-.8-.1-1.5.3-2.2-1.3.3-2.4.6-3.6.8-2.6.3-5.2.6-7.8.2-.8-.1-1.6-1.1-1.7-2.1-.1-.8.3-1.5 1.2-1.9 1.7-.8 3.5-1.5 5.3-2.1 2-.8 4.1-1.6 6.2-2.2.3-.1.4-.2.2-.5-1.9-3.3-3.4-6.8-4.8-10.4-.2-.5-.4-.9-.3-1.5s.2-1.2.9-1.3c.5-.1 1 .2 1.4.6 1.8 1.9 3.3 4 5 6 .9 1.1 1.9 2.2 2.8 3.3.3.4.6.4.9-.1.7-1.2 1.6-2.1 2.5-3.2 1.3-1.7 2.9-3.2 4.5-4.5.9-.8 1.8-1.6 3-1.9.4-.1.9-.3 1.2.1s.2.9 0 1.4c-.5 1.2-1.3 2.2-2.1 3.2-1.5 1.6-2.8 3.7-4.2 5.9m-257.2 129.7c-1.5-1.8-3-3.6-4.4-5.4-.8-1-1.6-2.1-2.2-3.3-.4-.8-.3-1.8-.3-2.6 0-.4.3-.7.9-.5 2.6.8 5.1 2 7.4 3.4s4.4 2.9 6.6 4.4c.2.1.4.2.4.4.1.2.2.5.2.7-.3.1-.7.2-1 .1-1.1-.6-2.2-1.4-3.4-2l-5.4-2.7c-.1 0-.2 0-.4.1.4.4.9.8 1.3 1.2.9.8 1.7 1.5 2.6 2.3.7.7 1.3 1.5 2 2.1s1.4 1.1 2.1 1.7c.4.4.9.7 1.3 1.2s.3 1-.2 1.4-1 .8-1.5 1.1c-.3.2-.7.1-1 .2-2.1.7-4.2 1.3-6.3 2 0 0-.1.1-.1.2 1.2.2 2.5.5 3.7.7 1.1.2 2.3.5 3.4.7 1.5.3 2.7 1.9 2.6 3.4-.2 3.8-.4 7.6-.6 11.5l.4-.4c1.6-2.8 3.2-5.6 4.7-8.4.1-.2.1-.5 0-.6-.7-1.2-.7-2.4-.6-3.7.1-.7.5-.9 1.3-.8 1.4.3 2.5 1.1 3.6 2 3.3 2.6 6.5 5.3 9.8 8 .1.1.3.2.6.5-.4-1-.7-1.9-1.1-2.7-.8-1.8-1.7-3.5-2.6-5.3-.9-1.7-1.8-3.4-2.6-5.1-.2-.4-.1-.8-.2-1.2.1-.1.2-.1.3-.2.5.3.9.6 1.4.8 3.6-1.4 7.2-2.9 10.8-4.3-3 .2-5.9.5-8.8.7-1.2.1-2.3-.1-3.5-.2-1.4-.2-2-.8-1.9-2.1.1-2.3-.3-4.4-.8-6.6-.4-1.9-.5-3.8-.7-5.7 0-.2-.1-.5-.2-.9-.3 1-.5 1.8-.8 2.6-.9 2.8-2 5.6-2.8 8.5-.3 1.3-1.1 2.1-2.1 2.6-.4.2-1.2.3-1.6.1-.3-.1-.5-.8-.6-1.2-.5-1.8.4-3.4 1-5.1 1.5-4.1 3-8.1 4.4-12.2.6-1.6 1.1-1.9 2.8-.8 1.2.8 1.3 1.9 1.5 3 .2.8.3 1.7.4 2.5.4 2.4.8 4.7 1.2 7.1.2 1.2.4 2.3.5 3.5.1.5.5.7.9.7 1.9 0 3.9 0 5.8-.1 3.7-.2 7.4-.5 11.1-.7 1.6-.1 3 .5 4 1.7.5.6.4.9-.2 1.5-1 .9-2.3 1.2-3.5 1.7h-.1c-2.9.9-5.9 1.8-8.8 2.7-2.4.7-4.8 1.4-7.3 2.1.7 1 1.2 1.9 1.7 2.8 2 3.5 4 6.9 5.8 10.4.5 1 .7 2.2 1 3.3 0 .1 0 .4-.1.5-.8 1.5-3.1 1.9-4.4.9-3.5-2.7-7-5.5-10.6-8.3-.7-.6-1.5-1.1-2.3-1.7-.5 1-.9 2-1.3 2.9-1.1 2.1-2.1 4.2-3.2 6.3-.9 1.6-1.9 3.2-2.9 4.8-.1.2-.2.5-.3.7-.4 1.1-1.5 1.9-2.7 1.8-.2 0-.5-.3-.6-.4-.2-1-.4-2-.3-2.9.2-5.2.5-10.4.7-15.7 0-.6.2-1.3-.1-1.6s-1-.2-1.6-.3c-2.8-.5-5.5-1-8.2-1.5-1.9-.4-3.9-.4-5.9-.5-1.4-.1-2-.4-2-2.3 0-.4-.1-.8-.1-1.2 0-.8.4-1.1 1.2-1.1 2 .1 3.9-.2 5.8-.8 2.2-.6 4.4-1.3 6.6-2 .1-.3.3-.4.4-.4M112 288c.8-1.7 1.5-3.3 2.4-4.9.5-.9 1-1.8 1.6-2.6.4-.5 1.1-.8 1.8-1.1.2-.1.6 0 .7.5q.45 3.15 0 6.3c-.2 2-.6 4.1-.9 6.1 0 .1 0 .3-.1.4-.1.2-.3.3-.4.4-.1-.2-.4-.4-.4-.6l.3-3c.1-1.6.1-3.1.1-4.7 0-.1 0-.1-.2-.3-.1.4-.3.9-.4 1.3-.3.9-.5 1.7-.8 2.6-.3.7-.6 1.4-.8 2.1s-.3 1.4-.5 2.1c-.1.4-.2.9-.4 1.3s-.6.5-1.1.3c-.4-.2-.9-.4-1.3-.7-.2-.1-.3-.4-.5-.6-1.1-1.3-2.3-2.5-3.4-3.8h-.2c.2 1 .5 1.9.7 2.8s.4 1.8.6 2.6c.3 1.1-.5 2.6-1.5 3-2.8 1.1-5.5 2.2-8.4 3.3.2.1.3.1.4.1l7.5.6c.2 0 .4-.1.5-.2.6-.8 1.5-1.3 2.4-1.6.5-.2.8.1 1 .7.3 1.1 0 2.1-.2 3.2l-2.4 9.6c0 .1-.1.3-.1.6.6-.6 1.1-1.1 1.5-1.7 1-1.2 1.9-2.4 2.9-3.6.9-1.2 1.8-2.4 2.8-3.5.2-.2.5-.4.8-.5.1 0 .1.1.2.1 0 .4-.1.8-.1 1.2 2.2 2 4.4 4.1 6.6 6.2-1.1-2-2.3-4-3.4-6-.4-.8-.7-1.7-1-2.5-.3-1-.1-1.7.9-2 1.7-.6 3-1.7 4.4-2.7 1.2-.9 2.5-1.6 3.8-2.4.2-.1.3-.2.5-.5-.8.1-1.4.2-2.1.3-2.3.3-4.6.4-6.9.8-1 .2-1.8-.1-2.6-.6-.3-.2-.6-.7-.6-1.1 0-.3.4-.6.7-.8 1.1-1 2.5-.9 3.9-1 3.4-.3 6.7-.5 10.1-.9 1.3-.1 1.7.2 1.5 1.7-.2 1.1-.9 1.5-1.6 2.1-.5.4-1.1.8-1.6 1.1-1.5 1.1-3.1 2.1-4.6 3.2-.8.5-1.5 1-2.3 1.5-.4.2-.3.5-.2.9.6 1.4 1.3 2.7 2 4 1.4 2.5 2.8 5.1 4.1 7.6.6 1.1.6 2.3.1 3.4-.3.5-.5.6-1.1.3-1-.4-1.6-1.3-2.4-1.9l-4.8-5.4c-1.3-1.5-2.5-2.9-3.9-4.5-.5.8-.9 1.5-1.4 2.1-1.8 2.5-3.6 5.1-5.4 7.5-.5.7-1.3 1.2-2 1.8-.1.1-.2.1-.4.1-1.3-.1-2.4-1.5-2.1-2.8l2.4-10.2c.2-.7.3-1.4.4-2.2h-2.5c-1.8-.1-3.7-.1-5.5-.2-1.5-.1-2.9-.3-4.4-.5h-.6c-.9.1-1.8-.5-2.1-1.3-.1-.2 0-.5.1-.6.6-.4 1.3-.9 2-1.2 3.8-1.6 7.5-3.1 11.3-4.6.4-.2 1-.3 1.1-.6s-.2-.8-.3-1.2c-.5-2.1-1.1-4.2-1.6-6.3-.4-1.5-1-2.9-1.5-4.3-.4-1-.4-1.6 1-2.1.3-.1.5-.3.8-.4.6-.3.9-.1 1.2.5.6 1.4 1.4 2.7 2.4 3.8 1.2 1.4 2.4 2.7 3.6 4-.2 0-.1 0-.1.1m803.7 4.8c-1.5-.6-3-1.2-4.5-1.9-.4-.2-.9-.3-1.1-.6-.3-.5-.5-1.1-.6-1.6-.1-.6 1-1.3 1.8-1.3 1.8 0 3.4.8 5 1.5.6.2 1.1.5 1.8.8.4-1.4.7-2.8 1.1-4.1.2-.8.5-1.6 1-2.2.4-.6 1.2-1 1.9-1.3.6-.2 1 .2 1.1.8.3 1.7.1 3.4-.2 5.1-.1.4-.1.9-.2 1.4 1.2-.3 2.3-.5 3.5-.9q2.25-.75 3.6.9c-.6 1.2-1.8 2-3 2.6-.9.5-1.8 1-2.8 1.5 1.6 1.1 3 2.2 4.6 3.2 1.2.8 1.8 2.3 1.1 3.5-2.1.6-3.4-1-4.9-1.8-1.2-.6-2.2-1.4-3.3-2.2-.2.9-.3 1.8-.5 2.6-.5 1.6-.4 3.3-.5 5 0 .6-.2 1.2-.4 1.7-.1.4-.5.9-.7.9-.4 0-.9-.3-1.2-.7-1.4-1.3-1.3-3-1.3-4.7 0-1 .1-2 .1-3.1l-.6.3c-2.1 1.1-4.2 2.3-6.2 3.4-.5.3-1 .3-1.1-.5-.1-.4-.3-.8-.4-1.2-.2-1.2.2-2.1 1.3-2.9 1.8-1.4 3.6-2.7 5.6-4.2M515 277.4c-1.5-.6-3-1.2-4.5-1.9-.4-.2-.9-.3-1.1-.6-.3-.5-.5-1.1-.6-1.6-.1-.6 1-1.3 1.8-1.3 1.8 0 3.4.8 5 1.5.6.2 1.1.5 1.8.8.4-1.4.7-2.8 1.1-4.1.2-.8.5-1.6 1-2.2.4-.6 1.2-1 1.9-1.3.6-.2 1 .2 1.1.8.3 1.7.1 3.4-.2 5.1-.1.4-.1.9-.2 1.4 1.2-.3 2.3-.5 3.5-.9q2.25-.75 3.6.9c-.6 1.2-1.8 2-3 2.6-.9.5-1.8 1-2.8 1.5 1.6 1.1 3 2.2 4.6 3.2 1.2.8 1.8 2.3 1.1 3.5-2.1.6-3.4-1-4.9-1.8-1.2-.6-2.2-1.4-3.3-2.2-.2.9-.3 1.8-.5 2.6-.5 1.6-.4 3.3-.5 5 0 .6-.2 1.2-.4 1.7-.1.4-.5.9-.7.9-.4 0-.9-.3-1.2-.7-1.4-1.3-1.3-3-1.3-4.7 0-1 .1-2 .1-3.1l-.6.3c-2.1 1.1-4.2 2.3-6.2 3.4-.5.3-1 .3-1.1-.5-.1-.4-.3-.8-.4-1.2-.2-1.2.2-2.1 1.3-2.9 1.9-1.4 3.7-2.7 5.6-4.2m-228.2-39.7c-1.5-.6-3-1.2-4.5-1.9-.4-.2-.9-.3-1.1-.6-.3-.5-.5-1.1-.6-1.6-.1-.6 1-1.3 1.8-1.3 1.8 0 3.4.8 5 1.5.6.2 1.1.5 1.8.8.4-1.4.7-2.8 1.1-4.1.2-.8.5-1.6 1-2.2.4-.6 1.2-1 1.9-1.3.6-.2 1 .2 1.1.8.3 1.7.1 3.4-.2 5.1-.1.4-.1.9-.2 1.4 1.2-.3 2.3-.5 3.5-.9q2.25-.75 3.6.9c-.6 1.2-1.8 2-3 2.6-.9.5-1.8 1-2.8 1.5 1.6 1.1 3 2.2 4.6 3.2 1.2.8 1.8 2.3 1.1 3.5-2.1.6-3.4-1-4.9-1.8-1.2-.6-2.2-1.4-3.3-2.2-.2.9-.3 1.8-.5 2.6-.5 1.6-.4 3.3-.5 5 0 .6-.2 1.2-.4 1.7-.1.4-.5.9-.7.9-.4 0-.9-.3-1.2-.7-1.4-1.3-1.3-3-1.3-4.7 0-1 .1-2 .1-3.1l-.6.3c-2.1 1.1-4.2 2.3-6.2 3.4-.5.3-1 .3-1.1-.5-.1-.4-.3-.8-.4-1.2-.2-1.2.2-2.1 1.3-2.9 1.8-1.4 3.6-2.8 5.6-4.2M159.5 136.6c-.4-1.4-.8-2.9-1.2-4.3-.1-.4-.3-.8-.2-1.1.2-.5.5-.9.9-1.3s1.5 0 1.9.5c1 1.3 1.3 2.9 1.8 4.4.2.5.3 1.1.4 1.7l3.6-1.5c.7-.3 1.4-.6 2.1-.6s1.4.3 2 .6c.5.3.4.8 0 1.3-1 1.2-2.4 2-3.8 2.8-.3.2-.7.4-1.1.6.9.7 1.7 1.4 2.6 2 1.2.8 1.7 1.8 1.4 3.1-1.2.2-2.4-.2-3.5-.7-.9-.4-1.7-.8-2.7-1.2.1 1.8.1 3.4.3 5 .1 1.3-.6 2.5-1.9 2.8-1.6-1.2-1.2-3-1.4-4.5-.2-1.2-.2-2.4-.3-3.6-.8.4-1.4.8-2.1 1.1-1.4.6-2.6 1.5-3.8 2.4-.4.3-.9.5-1.4.7-.3.1-.9.1-1.1 0-.2-.3-.3-.8-.2-1.2.2-1.7 1.4-2.6 2.6-3.5.7-.5 1.5-1.1 2.3-1.7-.2-.1-.4-.2-.5-.2-2-.9-3.9-1.7-5.9-2.6-.5-.2-.8-.5-.3-1 .3-.3.4-.6.6-.9.7-.9 1.7-1 2.8-.7 2 .5 4 1 6.1 1.6m911.1-72.8c-1.4-.8-2.8-1.7-4.2-2.5-.3-.2-.8-.4-1-.7-.2-.5-.3-1.1-.3-1.7s1.2-1.2 1.9-1c1.8.3 3.2 1.3 4.8 2.2.5.3 1 .7 1.6 1.1.6-1.3 1.1-2.6 1.7-3.9.4-.7.7-1.5 1.3-2.1.5-.5 1.3-.8 2-1 .6-.1 1 .4 1 1 .1 1.8-.4 3.4-.9 5.1-.1.4-.3.8-.4 1.3 1.2-.1 2.4-.2 3.6-.4 1.6-.2 2.7.2 3.4 1.4-.8 1.1-2 1.7-3.3 2.1-1 .3-1.9.7-3 1.1 1.4 1.3 2.7 2.6 4 3.8 1.1.9 1.4 2.5.6 3.7-2.2.2-3.2-1.5-4.6-2.5-1.1-.8-2-1.8-3-2.6-.3.9-.6 1.7-.9 2.5-.7 1.5-.9 3.2-1.2 4.8-.1.6-.4 1.1-.7 1.6-.2.3-.6.8-.9.8-.4-.1-.8-.5-1.1-.8-1.2-1.5-.9-3.2-.6-4.8.2-1 .4-2 .6-3.1-.3.1-.4.1-.6.2-2.2.8-4.4 1.6-6.7 2.4-.6.2-1 .2-1-.6 0-.4-.2-.8-.2-1.2-.1-1.2.6-2.1 1.7-2.7 2.2-1.2 4.2-2.3 6.4-3.5m272.8 152.3c-16.1-8.1-32.1-16.3-48.3-24.3-2.2-1.1-4.5-1.1-6.2 1.9-5.7 10.1-12.5 19.5-17.8 29.8-1.5 3.1-7.4 13.5-7.4 13.5-19.5 9-32.4 16-42.4 21.2-2.9 2-6.1 2.5-6.1 5-.2 16.6.7 34.6 1.1 51.1 0 .9 1 2.1 1.8 2.6 11.8 6.3 26.4 13.8 38.3 19.8 9 4.5 7 3.8 13 .7 13-6.5 27.8-13 40.8-19.4 2-1 2.7-2.1 2.7-4.4.4-15 .1-33.4.2-48.4 0-2-.4-1.1.7-2.8 3.6-5.6 8.3-12.2 12.1-17.8 6.2-9.1 12.3-18.3 18.3-27.2.7-.6-.5-1.2-.8-1.3m-124 97.4c-.3-15.5-.5-30.9-.8-46.4 14.8 7.4 29.7 14.8 44.5 22.3 0 15.5.1 31 .1 46.6zm-1.2-50.4c9.4-4.9 14.9-7.8 18.2-9.6 1.3-.7 4.9-2.7 9.8-5.1 1.7-.9 3.2-1.6 4.1-2 1.1-.5 2.3-1.1 3.4-1.6 3.4-1.6 6.8-3.2 10.2-4.7.3 15.1.7 30.1 1 45.2-15.5-7.5-31.1-14.9-46.7-22.2m50 20.9c-.6-13.8-.8-29.1-1.4-43 14.1 7.4 27.7 14.5 42.1 22.1-13.3 6.6-27.2 14.3-40.7 20.9m45.3-25.9c-1.8 2.7-2.6 3.3-5.9 1.4-13.4-7.6-27.2-14.5-41.3-21.9 2.1-3.8 4.6-8.2 7.1-12.5 5.3-9.2 11.3-18.7 16.3-28 1.7-3.1 1.9-3.6 4.7-2.2 12.7 6.3 26.4 13 39.1 19.3 2.3 1.1 4.5 2.3 7 3.6-9.3 13.9-18.3 27.1-27 40.3" fill="#000"/><path d="M1243.7 256.4s-.3-3.8-2.1-7c-1.2-2.3-17.2-27.4-47-29.4-25.1-1.6-43.6 14.3-43.3 14.8.2.6 20.9-13.9 45.1-9.6 13.6 2.4 24.1 10.1 24.9 10.7 8.3 6.2 13.7 13.4 13.7 13.4 4.2 5.7 7 11.5 8.3 11 .7-.1.5-2.5.4-3.9m-651.5 52.8c.8 1-4.3 7-8.8 11.2-20 18.7-48.1 18.6-49.5 18.5-17.2-1.3-33-6.4-47.3-16.9-22.6-16.5-37.8-38.8-51.8-62.2-8.1-13.4-16-26.9-27.8-37.6-12.4-11.3-26.7-19.4-43.1-22.5-16.2-3.1-27.4 3.6-27.4 3.6-1.9.8-5.1 2.2-5.3 1.8-.3-.6 4.4-4.4 9.8-6.9 1.5-.7 5.5-2.4 11.7-3.2 5.3-.6 11.6-.4 19.4 1.7 17.9 4.8 31.9 16.2 33.4 17.5 16.4 14.1 26.9 32.2 38.2 50 8.9 14.1 18 28.1 30.2 39.6 14.7 14 32.2 23.2 52 27 19 3.7 35.9-2.7 51.3-13.9.1-.1 1.4-1 3.3-2.2 1.5-.9 10.7-6.7 11.7-5.5m592.5-20.5c.7.6-1.9 4.9-3.6 7.6-4.1 6.6-9.2 14.7-19.6 23.8-7.6 6.7-22.6 19.9-46.4 24.3-13.8 2.6-25 1.1-29.8.3-13-2.2-25.3-7.4-37-15.3-12.9-8.7-16.7-12-23.9-17.2-2.8-2-2.8-1.9-6.8-4.7-5.6-3.9-9.6-6.8-10.5-7.5-8.8-6.4-23.4-17-40.7-18.6-13.1-1.3-22.3 3.2-22.5 2.4-.2-.7 9.5-4.7 21.4-4.8 0 0 4 0 7.7.5 18.2 2.4 46.9 23.7 59.8 32.8 18.9 13.3 28.2 20.1 38.7 23.4 5.8 1.8 25.8 8.8 48.6 2 0 0 23.2-6.9 42.9-29.2.2-.2 1.8-2.1 4.1-4.5 1.2-1.1 16.1-16.5 17.6-15.3m58.5-64.9c-6.7-27.7-37.1-30-50-55.4-13.1-25.9 7.4-45.3-8-82-2.8-6.6-6.7-13.9-13.7-20.4-12-11.3-26-14-30.5-14.7-14.8-2.6-28.5.6-33.1 1.7-6.1 1.4-13.1 3.7-13.4 2.9s4.8-3.5 5.5-3.8c17.3-9.2 39-5.4 41.2-5 6.4 1.2 17.2 3.2 28.1 11.3 21 15.7 24.5 41.2 25.2 48.6.8 9.5.4 8.6-1 27.7-.8 10.6.9 24.3 5 33.1 9.3 20.2 31.1 24.1 43.4 42.9 1.5 2.3 5 8.1 6 16.1.6 5.1.2 10.7-.6 10.8-1.3 0-3.2-10.1-4.1-13.8m-867.8 68.5c-.7 1.2-8.3-4.1-18.7-7.1-15-4.3-28.1-1.8-33.1-.8-10.2 2.1-14.7 5.4-24.9 10.1-15.5 7.2-32 12.2-43.9 14.1-29.5 4.8-65.3-3.6-82.1-24.3-3.1-3.7-8.7-11.9-8.2-12.3.6-.5 7.4 7.4 11 11.1 18.6 18.5 52.3 23.9 78.1 19.5 15-2.6 31.1-9.1 53.9-18.4 4.8-1.9 13.6-5.6 25.7-6.7 0 0 16.2-1.4 30.2 4.8 3.2 1.4 5.6 3.2 6.3 3.8 2.4 1.8 6.3 5.4 5.7 6.2m409.3 55.2c.8-1.7 11.3 2.9 20.4 4.4 19 3.1 44.2-5.4 58.8-21.5 4.3-4.7 17.9-21.5 28-25 1.1-.4 4.6-1.6 4.8-1.1.3.6-3.8 3-4.6 3.5-9.6 5.9-18.3 18.1-23.4 23.9-13.2 15.2-30.8 21.5-33.9 22.6-16.4 5.6-34.7 5.3-45.8-2.4-.8-.6-4.8-3.3-4.3-4.4M234.4 220.3c-.1.4-8.3-1.3-14.8-5.3-10.5-6.5-17.2-20.1-16.6-34.1.5-9.4 7.3-23.7 18.6-24.9 7.4-.8 16.5 4.1 18.5 11.7 1.3 4.9-.1 11.4-4 14-2.5 1.7-5.2 1.6-5.2 1.6-.8 0-2.2 0-3.6-.9-1.9-1.2-3.1-3.6-2.5-4.4s2.3.7 4.8.2c2.2-.4 4.3-2.1 5.2-4.4 1.1-2.7.1-5.2-.2-6-1.6-3.9-5.7-6.4-9.8-6.5s-7 2.3-9 4c-5.6 4.7-7.3 11.1-7.7 13.1-2.8 11.5 3.2 21.3 4.6 23.7.4.6.7 1.1.9 1.4 6.2 9.4 16.4 14.7 17.7 15.3 1.1.4 3.1 1.3 3.1 1.5m-108.9-5.5c-1.4.5-16.4-21.5-15.4-49.7.2-5.2 1.3-21.8 11.2-36 .6-.8 4.1-5.8 4.7-5.4 1 .6-6.2 12.6-8.4 20.1-10.4 36.8 9.5 70.4 7.9 71m1124.8-85c-.7.2-2.4-2.6-3.5-5.1-3.8-8.8-.9-17.6 0-20.4.9-2.7 2.2-6.5 5.5-10.2 4.1-4.7 12.6-10.8 20.3-8 .6.2 5.8 2.2 7 7.1 1.3 5.3-2.8 11.2-7.4 12.4-2.7.7-5.6-.2-5.6-.8 0-.7 3.7-.5 7.1-3.4.9-.8 2.5-2.2 2.9-4.6.3-1.8-.2-3.3-.5-3.9-1.3-3-4.4-3.9-4.9-4.1-.5-.1-2.7-.8-6.2.4-.9.3-5.2 1.9-9.5 7.6-4.6 6.1-5.8 12.4-6.1 14.1-1.7 10.3 2.1 18.5.9 18.9m11.2 90.8c-.2 0-.7-.2-1.3-3.8-2-13.7 3.8-28.3 6.9-35.2 0 0 7-14.9 21.9-24.8.6-.4 2.4-1.6 2.7-1.3.5.6-6.5 6.2-12.3 14-4.4 5.9-6.6 11-8.7 15.7-8 18.6-7.4 35.5-9.2 35.4" fill="#000"/></svg>